<?xml version="1.0" encoding="UTF-8"?>
<svg version="1.1" xmlns="http://www.w3.org/2000/svg" width="512" height="512">
<path d="M0 0 C1.01790619 0.00215515 2.03581238 0.0043103 3.08456421 0.00653076 C17.69363523 0.05620146 32.02575853 0.30709809 46.375 3.3125 C47.34985352 3.51117676 48.32470703 3.70985352 49.32910156 3.91455078 C97.7109774 14.03517194 141.69928269 35.9516877 177.375 70.3125 C178.3640332 71.26068604 178.3640332 71.26068604 179.37304688 72.22802734 C188.86130305 81.37247479 197.6012044 90.66984009 205.375 101.3125 C206.23306152 102.46355017 207.09113451 103.61459177 207.94921875 104.765625 C213.98736829 112.95680614 219.34595521 121.47054105 224.375 130.3125 C224.73948242 130.94430176 225.10396484 131.57610352 225.47949219 132.22705078 C247.08534998 169.97532572 256.85198095 212.74189997 256.6875 255.9375 C256.68534485 256.95540619 256.6831897 257.97331238 256.68096924 259.02206421 C256.63129854 273.63113523 256.38040191 287.96325853 253.375 302.3125 C253.07698486 303.77478027 253.07698486 303.77478027 252.77294922 305.26660156 C242.65232806 353.6484774 220.7358123 397.63678269 186.375 433.3125 C185.74287598 433.97185547 185.11075195 434.63121094 184.45947266 435.31054688 C175.31502521 444.79880305 166.01765991 453.5387044 155.375 461.3125 C154.22394983 462.17056152 153.07290823 463.02863451 151.921875 463.88671875 C143.73224019 469.92427396 135.22961724 475.30707302 126.375 480.3125 C125.66778809 480.7146875 124.96057617 481.116875 124.23193359 481.53125 C101.09654164 494.5566741 75.92537591 503.30551461 49.9375 508.625 C49.21860596 508.77235596 48.49971191 508.91971191 47.7590332 509.0715332 C33.08339502 511.86090125 18.55831162 512.66142619 3.64770508 512.62817383 C0.70811513 512.6250221 -2.2304558 512.64854926 -5.16992188 512.67382812 C-18.54306192 512.71848737 -31.43916711 511.51301542 -44.625 509.3125 C-46.33055054 509.03031616 -46.33055054 509.03031616 -48.07055664 508.74243164 C-91.33802759 500.97044532 -132.38793216 480.98345309 -165.625 452.3125 C-166.37007813 451.67828125 -167.11515625 451.0440625 -167.8828125 450.390625 C-181.38779833 438.57948485 -194.05918743 425.82889772 -204.625 411.3125 C-205.48149066 410.16255169 -206.33826433 409.01281411 -207.1953125 407.86328125 C-213.23534209 399.67315742 -218.61867614 391.16870382 -223.625 382.3125 C-224.0271875 381.60528809 -224.429375 380.89807617 -224.84375 380.16943359 C-237.8691741 357.03404164 -246.61801461 331.86287591 -251.9375 305.875 C-252.08485596 305.15610596 -252.23221191 304.43721191 -252.3840332 303.6965332 C-255.35789088 288.05024391 -255.99800362 272.57681954 -255.9375 256.6875 C-255.93534485 255.66959381 -255.9331897 254.65168762 -255.93096924 253.60293579 C-255.88129854 238.99386477 -255.63040191 224.66174147 -252.625 210.3125 C-252.42632324 209.33764648 -252.22764648 208.36279297 -252.02294922 207.35839844 C-241.90232806 158.9765226 -219.9858123 114.98821731 -185.625 79.3125 C-184.99287598 78.65314453 -184.36075195 77.99378906 -183.70947266 77.31445312 C-174.56502521 67.82619695 -165.26765991 59.0862956 -154.625 51.3125 C-153.47394983 50.45443848 -152.32290823 49.59636549 -151.171875 48.73828125 C-142.98224019 42.70072604 -134.47961724 37.31792698 -125.625 32.3125 C-124.91778809 31.9103125 -124.21057617 31.508125 -123.48193359 31.09375 C-100.34654164 18.0683259 -75.17537591 9.31948539 -49.1875 4 C-48.46860596 3.85264404 -47.74971191 3.70528809 -47.0090332 3.5534668 C-31.36274391 0.57960912 -15.88931954 -0.06050362 0 0 Z " fill="#00C8C5" transform="translate(255.625,-0.3125)"/>
<path d="M0 0 C1.06025391 -0.01224609 2.12050781 -0.02449219 3.21289062 -0.03710938 C13.934066 -0.05670933 23.85985224 1.31340836 33.8125 5.375 C34.96395508 5.83628296 34.96395508 5.83628296 36.13867188 6.30688477 C61.09456874 16.57530545 80.14324875 35.73410891 90.60888672 60.46728516 C99.97544681 83.63539449 99.098265 109.44469545 90.31640625 132.64453125 C85.62099081 143.70619827 79.96100425 153.26762271 71.8125 162.1875 C71.11511719 162.96609375 70.41773438 163.7446875 69.69921875 164.546875 C53.69435854 181.5172935 30.06252249 192.60489019 6.6953125 193.3984375 C5.76726807 193.42462158 4.83922363 193.45080566 3.88305664 193.4777832 C-7.07726269 193.79301162 -17.48569108 194.84515743 -28.1875 197.1875 C-28.84234375 197.31995117 -29.4971875 197.45240234 -30.171875 197.58886719 C-41.56036351 199.90355506 -51.79419036 204.03189682 -62.1875 209.1875 C-62.81398438 209.49671387 -63.44046875 209.80592773 -64.0859375 210.12451172 C-95.84140823 226.14958415 -117.98428535 255.53302688 -129.35058594 288.64355469 C-133.85114518 302.32378435 -135.10556357 315.85184229 -136.1875 330.1875 C-146.0875 330.1875 -155.9875 330.1875 -166.1875 330.1875 C-166.1875 288.79472084 -151.89514464 250.06405415 -124.1875 219.1875 C-123.39085937 218.2696875 -122.59421875 217.351875 -121.7734375 216.40625 C-117.22783541 211.22020226 -112.57607075 206.49152481 -107.1875 202.1875 C-106.6423877 201.75179687 -106.09727539 201.31609375 -105.53564453 200.8671875 C-91.46347045 189.71973056 -76.53706378 181.49312404 -60.1875 174.1875 C-63.48317591 170.86695431 -63.48317591 170.86695431 -66.85546875 167.625 C-81.86663333 153.42420677 -90.32016198 136.03166313 -95.1875 116.1875 C-95.43371094 115.21296875 -95.67992187 114.2384375 -95.93359375 113.234375 C-101.07121891 89.56586739 -94.49337525 64.82907151 -82.328125 44.4453125 C-78.98190705 39.35271074 -75.24808708 34.72405333 -71.1875 30.1875 C-70.64867187 29.56617187 -70.10984375 28.94484375 -69.5546875 28.3046875 C-51.58844077 8.89391842 -25.85020242 0.01543296 0 0 Z " fill="#FCFEFE" transform="translate(256.1875,74.8125)"/>
<path d="M0 0 C1.06138184 0.01087646 2.12276367 0.02175293 3.21630859 0.03295898 C21.79839351 0.41168937 36.97162764 7.52636459 50.26953125 20.4609375 C64.31081082 35.33449177 68.74062167 52.88437887 68.3984375 72.76953125 C67.69889043 89.52056684 58.55878004 105.40708564 46.59375 116.78125 C30.56722407 130.59722063 12.29086273 134.7884137 -8.39892578 133.59814453 C-23.3174784 132.25368022 -36.57259952 123.80131252 -46.875 113.375 C-47.58398438 112.68792969 -48.29296875 112.00085938 -49.0234375 111.29296875 C-60.1523087 99.80166305 -66.17665565 83.19672222 -66.3125 67.3125 C-65.98004355 50.16931097 -60.35342947 33.9420042 -48.20703125 21.609375 C-47.43746094 20.87203125 -46.66789062 20.1346875 -45.875 19.375 C-45.11574219 18.59640625 -44.35648438 17.8178125 -43.57421875 17.015625 C-31.6512457 5.38535996 -16.49327307 -0.22940095 0 0 Z " fill="#01C8C6" transform="translate(254.875,104.625)"/>
<path d="M0 0 C9.9 0 19.8 0 30 0 C30 17.82 30 35.64 30 54 C47.82 54 65.64 54 84 54 C84 63.9 84 73.8 84 84 C66.18 84 48.36 84 30 84 C30 101.82 30 119.64 30 138 C20.1 138 10.2 138 0 138 C0 120.18 0 102.36 0 84 C-17.82 84 -35.64 84 -54 84 C-54 74.1 -54 64.2 -54 54 C-36.18 54 -18.36 54 0 54 C0 36.18 0 18.36 0 0 Z " fill="#FDFEFE" transform="translate(339,269)"/>
</svg>
