<?xml version="1.0" encoding="UTF-8"?>
<svg version="1.1" xmlns="http://www.w3.org/2000/svg" width="512" height="512">
<path d="M0 0 C1.61273818 -0.01059839 1.61273818 -0.01059839 3.25805694 -0.02141088 C5.03642819 -0.01778826 5.03642819 -0.01778826 6.85072613 -0.01409245 C8.10679013 -0.01932912 9.36285414 -0.0245658 10.65698069 -0.02996117 C14.15032504 -0.04417137 17.64358055 -0.04580389 21.13694966 -0.04536426 C24.90189184 -0.04700982 28.66679714 -0.06007144 32.43171978 -0.07155704 C40.66721899 -0.09442651 48.90269246 -0.10232973 57.13821912 -0.10738349 C62.27899164 -0.11063823 67.41975666 -0.11715936 72.56052494 -0.12438488 C86.7895566 -0.14395331 101.01858128 -0.16035611 115.24762726 -0.16326141 C116.15853679 -0.16344898 117.06944632 -0.16363655 118.00795917 -0.16382981 C119.85465475 -0.16419606 121.70135033 -0.16455976 123.54804591 -0.16492092 C124.464768 -0.16510373 125.38149009 -0.16528654 126.32599163 -0.16547489 C127.24383061 -0.16565544 128.1616696 -0.16583599 129.10732188 -0.16602201 C143.98262011 -0.16956433 158.85777362 -0.1965892 173.73302165 -0.23397278 C188.99962091 -0.27203333 204.26614832 -0.29141872 219.53279608 -0.29172093 C228.10674886 -0.292306 236.68052903 -0.30083032 245.25443745 -0.32971859 C252.55479126 -0.35420242 259.85490952 -0.36153578 267.15529326 -0.34647106 C270.88069501 -0.33928973 274.60563135 -0.34021137 278.33098125 -0.36288166 C282.36875003 -0.38721791 286.4054547 -0.37287045 290.44325542 -0.35466862 C292.21158843 -0.37446857 292.21158843 -0.37446857 294.01564533 -0.39466852 C302.8523473 -0.30337367 302.8523473 -0.30337367 306.54960442 2.54848289 C310.38109869 7.0895791 309.98166593 10.9308553 309.95772076 16.68846798 C309.95900239 17.81452965 309.95900239 17.81452965 309.96030992 18.96334004 C309.96195761 21.47991491 309.95645497 23.99642318 309.95099163 26.51299191 C309.95070958 28.31651463 309.95086784 30.12003748 309.95143414 31.92356014 C309.95172141 36.82193742 309.94583592 41.72029028 309.93886018 46.61866188 C309.93261506 51.73694072 309.93202192 56.8552201 309.93083477 61.97350216 C309.92772488 71.6667246 309.91951609 81.35993579 309.90948528 91.05315328 C309.89831354 102.08810107 309.89281101 113.12304939 309.88778985 124.15800142 C309.87733321 146.8586946 309.85974036 169.55937778 309.83746624 192.26006222 C310.56984099 192.25545325 311.30221575 192.25084429 312.05678368 192.24609566 C329.87547539 192.1356833 347.69409884 192.05293825 365.51305962 192.00100136 C374.13019055 191.97521755 382.74709317 191.94006383 391.36407757 191.88286495 C398.87449031 191.83303516 406.38473772 191.80077248 413.89531118 191.78961974 C417.87234865 191.78310017 421.8489131 191.76777437 425.82579899 191.73141193 C429.56954921 191.69745869 433.31263185 191.68700758 437.05652142 191.69452381 C439.08456723 191.69249364 441.11254042 191.6655949 443.14039898 191.63796139 C453.04940704 191.6942443 453.04940704 191.6942443 456.13087749 194.6705389 C458.44927055 198.18839455 458.96230605 199.8826674 458.96051407 204.05081272 C458.96250512 205.06846293 458.96449617 206.08611314 458.96654755 207.13460124 C458.96363471 208.26104151 458.96072187 209.38748178 458.95772076 210.5480566 C458.95900239 212.33309048 458.95900239 212.33309048 458.96030992 214.15418565 C458.96167662 217.46754679 458.95853476 220.78084939 458.95353186 224.09420347 C458.94922634 227.66339049 458.95067386 231.2325756 458.95143414 234.80176449 C458.95195931 240.98902601 458.94881322 247.17627701 458.9431963 253.36353588 C458.93508037 262.30934964 458.93246598 271.2551583 458.93120831 280.20097534 C458.92901793 294.71383792 458.92235824 309.22669488 458.91290569 323.73955441 C458.9037312 337.84014006 458.89665055 351.94072419 458.89239788 366.04131222 C458.8920038 367.34434762 458.8920038 367.34434762 458.89160175 368.67370696 C458.89029674 373.03153042 458.88903303 377.38935389 458.88778985 381.74717736 C458.87741769 417.91814294 458.85979977 454.08910214 458.83746624 490.26006222 C459.64570843 490.23685909 460.45395061 490.21365597 461.28668499 490.18974972 C462.3553178 490.17170284 463.42395061 490.15365597 464.52496624 490.13506222 C465.58070843 490.11185909 466.63645061 490.08865597 467.72418499 490.06474972 C472.1382981 490.34167024 474.85645737 491.38510836 478.14996624 494.32256222 C480.46370932 498.35018906 480.6774484 501.71427639 479.83746624 506.26006222 C478.04352956 509.1303609 476.85483348 510.7513786 473.83746624 512.26006222 C471.14874465 512.36048112 468.48576709 512.39929862 465.79665184 512.39428329 C464.95165529 512.39663552 464.10665874 512.39898776 463.23605624 512.40141127 C460.37358127 512.40812614 457.51115144 512.4076423 454.64866924 512.40723324 C452.5881057 512.41053031 450.52754281 512.41425554 448.46698076 512.41837472 C442.78036465 512.42842054 437.0937591 512.43211564 431.40713537 512.43476403 C425.28363206 512.4386594 419.16013717 512.44823819 413.03663921 512.45697689 C398.93686237 512.47582677 384.83708746 512.48600017 370.73730156 512.49443757 C363.7730189 512.49864158 356.8087371 512.50386388 349.84445517 512.5091221 C326.0151555 512.52701297 302.1858556 512.54201028 278.35655022 512.54944229 C276.86010822 512.54991705 275.36366623 512.55039294 273.86722424 512.55086995 C273.12510817 512.55110633 272.38299211 512.55134271 271.61838769 512.55158624 C267.85832467 512.55278747 264.09826167 512.55400291 260.33819866 512.55522823 C259.21889599 512.55558846 259.21889599 512.55558846 258.07698115 512.55595596 C233.87436798 512.56385179 209.67180377 512.5872891 185.46921199 512.61978418 C159.89382143 512.65405986 134.31845954 512.6737913 108.74304563 512.67708653 C105.93702335 512.67750409 103.13100109 512.67798365 100.32497883 512.67850971 C99.6340337 512.6786329 98.94308858 512.6787561 98.23120572 512.67888302 C87.09845554 512.6812178 75.96576209 512.69689311 64.83303215 512.71735156 C53.64902308 512.73757864 42.46508135 512.74276746 31.28105112 512.73358092 C25.21872519 512.72901922 19.156584 512.73103071 13.0942831 512.75034237 C7.54951135 512.76785352 2.00506077 512.76707496 -3.53971382 512.75144508 C-5.55050072 512.74905059 -7.56130917 512.75348683 -9.57206295 512.76527373 C-12.29650318 512.78026076 -15.01978582 512.77081219 -17.74419594 512.75504684 C-18.5326619 512.76526905 -19.32112785 512.77549126 -20.13348672 512.78602323 C-23.85669694 512.73870261 -25.96298248 512.3883947 -29.12617987 510.35412568 C-32.48024424 506.90500828 -32.55915483 504.24423932 -32.51409626 499.58818722 C-31.91079419 495.59298686 -30.12383176 493.95215131 -27.16253376 491.26006222 C-23.78624422 490.02357022 -20.47716638 490.15881621 -16.91253376 490.19756222 C-15.83487751 490.20658566 -14.75722126 490.21560909 -13.64690876 490.22490597 C-12.82706501 490.23650753 -12.00722126 490.24810909 -11.16253376 490.26006222 C-11.1642425 488.7298901 -11.1642425 488.7298901 -11.16598576 487.16880542 C-11.21598067 442.22207425 -11.26226566 397.2753406 -11.28956318 352.32858944 C-11.28997735 351.64837649 -11.29039152 350.96816354 -11.29081824 350.26733808 C-11.29979646 335.48534318 -11.30810708 320.70334798 -11.31572975 305.92135232 C-11.31947184 298.67252052 -11.32336149 291.42368881 -11.32732868 284.17485714 C-11.32772096 283.45350191 -11.32811324 282.73214669 -11.3285174 281.98893221 C-11.34130699 258.59749554 -11.36384505 235.20608056 -11.39142542 211.81465704 C-11.4197107 187.78180637 -11.43818719 163.74896772 -11.44427873 139.71610068 C-11.44514323 136.32351967 -11.44612014 132.9309387 -11.44716549 129.53835773 C-11.44736776 128.87063317 -11.44757003 128.2029086 -11.44777843 127.51494996 C-11.451107 117.42273203 -11.4630889 107.33054735 -11.47972393 97.23834324 C-11.49857313 85.76140435 -11.50745566 74.2845145 -11.50303789 62.80755994 C-11.5011101 56.9478017 -11.50413384 51.08815259 -11.52015018 45.22841358 C-11.53469351 39.86865215 -11.53552246 34.50907377 -11.52523044 29.14930411 C-11.52395745 27.20575193 -11.52781 25.26218856 -11.53718331 23.31865857 C-11.54915078 20.68504295 -11.54277772 18.05209583 -11.53167725 15.41849136 C-11.53955829 14.65672758 -11.54743933 13.8949638 -11.55555919 13.11011627 C-11.51281771 8.64965124 -10.94043517 5.79012319 -8.16253376 2.26006222 C-4.85127214 0.05255447 -3.85119294 0.00806815 0 0 Z M10.83746624 22.26006222 C10.83746624 176.70006222 10.83746624 331.14006222 10.83746624 490.26006222 C38.88746624 490.26006222 66.93746624 490.26006222 95.83746624 490.26006222 C96.007964 464.44132493 96.007964 464.44132493 96.1353178 438.62236691 C96.18072796 433.62578487 96.18072796 433.62578487 96.20703411 431.28575802 C96.22163634 429.65348268 96.22841913 428.02112591 96.22900677 426.38878536 C96.23142232 423.91401744 96.2587413 421.44064345 96.2915678 418.96611691 C96.28654373 418.24040871 96.28151966 417.51470051 96.27634335 416.76700115 C96.34757756 413.34098191 96.59538128 411.56681875 98.74658489 408.8409338 C102.85816526 405.73225402 106.54224878 406.09872988 111.52228069 406.08306026 C112.42162334 406.07648907 113.320966 406.06991787 114.24756145 406.06314754 C117.23195759 406.04339227 120.21630336 406.03174725 123.20074749 406.02178097 C124.21870089 406.01770544 125.23665428 406.01362991 126.28545475 406.00943089 C131.67282567 405.98856106 137.06017104 405.97426305 142.44757366 405.9648962 C148.01634614 405.9538273 153.58471952 405.91942431 159.15335083 405.8797245 C163.431585 405.85359837 167.7097235 405.84520794 171.98803043 405.84161472 C174.04095627 405.83673874 176.09387756 405.8250961 178.14672565 405.80657673 C181.0196296 405.78226965 183.89149323 405.78313489 186.76446819 405.79009151 C188.03721851 405.77087643 188.03721851 405.77087643 189.33568096 405.75127316 C193.37138455 405.78690343 195.35129927 405.9519164 198.84202862 408.16443539 C202.29570429 411.79151715 202.004699 414.87120022 202.04278851 419.64726925 C202.05783759 420.80735658 202.05783759 420.80735658 202.07319069 421.99088001 C202.10462841 424.49984755 202.12936851 427.00883086 202.15387249 429.51787472 C202.17227107 431.06467365 202.19110749 432.61146743 202.21039104 434.15825558 C202.27889587 439.90046353 202.33891202 445.64277021 202.39996624 451.38506222 C202.61652874 470.62818722 202.61652874 470.62818722 202.83746624 490.26006222 C230.88746624 490.26006222 258.93746624 490.26006222 287.83746624 490.26006222 C287.83746624 335.82006222 287.83746624 181.38006222 287.83746624 22.26006222 C196.42746624 22.26006222 105.01746624 22.26006222 10.83746624 22.26006222 Z M309.83746624 214.26006222 C309.83746624 305.34006222 309.83746624 396.42006222 309.83746624 490.26006222 C351.74746624 490.26006222 393.65746624 490.26006222 436.83746624 490.26006222 C436.83746624 399.18006222 436.83746624 308.10006222 436.83746624 214.26006222 C394.92746624 214.26006222 353.01746624 214.26006222 309.83746624 214.26006222 Z M117.83746624 427.26006222 C117.83746624 448.05006222 117.83746624 468.84006222 117.83746624 490.26006222 C138.62746624 490.26006222 159.41746624 490.26006222 180.83746624 490.26006222 C180.83746624 469.47006222 180.83746624 448.68006222 180.83746624 427.26006222 C160.04746624 427.26006222 139.25746624 427.26006222 117.83746624 427.26006222 Z " fill="#000000" transform="translate(32.1625337600708,-0.26006221771240234)"/>
<path d="M0 0 C0.69291138 -0.00817749 1.38582275 -0.01635498 2.09973145 -0.02478027 C4.39753353 -0.04963287 6.69527376 -0.06615143 8.99316406 -0.08056641 C9.7781855 -0.08589008 10.56320694 -0.09121376 11.37201691 -0.09669876 C15.5286003 -0.1234321 19.68515366 -0.14280478 23.84179688 -0.15722656 C28.1304593 -0.17385872 32.4183509 -0.21862295 36.70672226 -0.26959801 C40.00792294 -0.30329653 43.30894142 -0.31480686 46.61029816 -0.32045364 C48.19073617 -0.32716094 49.77116241 -0.34236967 51.3514328 -0.36634445 C53.56825515 -0.39805261 55.78300937 -0.3980256 58 -0.390625 C59.25971619 -0.39871185 60.51943237 -0.40679871 61.81732178 -0.41513062 C66.37844102 0.39067925 67.99756726 1.9570185 71.25878906 5.19287109 C72.71481248 8.10491792 72.41836966 10.68141536 72.45166016 13.93408203 C72.46392639 14.9734491 72.46392639 14.9734491 72.47644043 16.03381348 C72.50129303 18.33161556 72.51781158 20.62935579 72.53222656 22.92724609 C72.53755024 23.71226753 72.54287392 24.49728897 72.54835892 25.30609894 C72.57509225 29.46268233 72.59446493 33.61923569 72.60888672 37.77587891 C72.62551888 42.06454133 72.67028311 46.35243293 72.72125816 50.64080429 C72.75495669 53.94200497 72.76646701 57.24302345 72.7721138 60.54438019 C72.7788211 62.1248182 72.79402982 63.70524444 72.81800461 65.28551483 C72.84971276 67.50233718 72.84968576 69.7170914 72.84228516 71.93408203 C72.85037201 73.19379822 72.85845886 74.4535144 72.86679077 75.75140381 C72.06098091 80.31252305 70.49464165 81.93164929 67.25878906 85.19287109 C64.34674223 86.64889451 61.7702448 86.35245169 58.51757812 86.38574219 C57.47821106 86.39800842 57.47821106 86.39800842 56.41784668 86.41052246 C54.1200446 86.43537506 51.82230437 86.45189361 49.52441406 86.46630859 C48.73939262 86.47163227 47.95437119 86.47695595 47.14556122 86.48244095 C42.98897783 86.50917428 38.83242446 86.52854697 34.67578125 86.54296875 C30.38711883 86.55960091 26.09922723 86.60436514 21.81085587 86.65534019 C18.50965518 86.68903872 15.2086367 86.70054904 11.90727997 86.70619583 C10.32684196 86.71290313 8.74641572 86.72811185 7.16614532 86.75208664 C4.94932298 86.7837948 2.73456876 86.78376779 0.51757812 86.77636719 C-0.74213806 86.78445404 -2.00185425 86.79254089 -3.29974365 86.8008728 C-7.86086289 85.99506294 -9.47998914 84.42872368 -12.74121094 81.19287109 C-14.19723435 78.28082426 -13.90079153 75.70432683 -13.93408203 72.45166016 C-13.94225952 71.75874878 -13.95043701 71.0658374 -13.9588623 70.35192871 C-13.9837149 68.05412663 -14.00023346 65.7563864 -14.01464844 63.45849609 C-14.01997211 62.67347466 -14.02529579 61.88845322 -14.03078079 61.07964325 C-14.05751413 56.92305986 -14.07688681 52.76650649 -14.09130859 48.60986328 C-14.10794075 44.32120086 -14.15270498 40.03330926 -14.20368004 35.7449379 C-14.23737857 32.44373722 -14.24888889 29.14271873 -14.25453568 25.841362 C-14.26124297 24.26092399 -14.2764517 22.68049775 -14.30042648 21.10022736 C-14.33213464 18.88340501 -14.33210763 16.66865079 -14.32470703 14.45166016 C-14.33279388 13.19194397 -14.34088074 11.93222778 -14.34921265 10.63433838 C-13.54340278 6.07321914 -11.97706353 4.4540929 -8.74121094 1.19287109 C-5.82916411 -0.26315232 -3.25266667 0.0332905 0 0 Z M8.25878906 22.19287109 C8.25878906 36.05287109 8.25878906 49.91287109 8.25878906 64.19287109 C22.11878906 64.19287109 35.97878906 64.19287109 50.25878906 64.19287109 C50.25878906 50.33287109 50.25878906 36.47287109 50.25878906 22.19287109 C36.39878906 22.19287109 22.53878906 22.19287109 8.25878906 22.19287109 Z " fill="#000000" transform="translate(98.7412109375,276.80712890625)"/>
<path d="M0 0 C1.02473671 -0.0098568 1.02473671 -0.0098568 2.07017517 -0.01991272 C4.33552152 -0.0396543 6.60080149 -0.05131139 8.86621094 -0.0612793 C9.64019981 -0.06535482 10.41418869 -0.06943035 11.21163177 -0.07362938 C15.30986769 -0.09449582 19.40807009 -0.10879387 23.50634766 -0.11816406 C27.73436005 -0.12921756 31.96184454 -0.16360301 36.18967056 -0.20333576 C39.44454915 -0.22951754 42.69930241 -0.23785735 45.95427704 -0.24144554 C47.51236274 -0.2463091 49.07044293 -0.25791664 50.6284256 -0.27648354 C52.81390297 -0.30090516 54.99802091 -0.29990515 57.18359375 -0.29296875 C59.04652069 -0.30176811 59.04652069 -0.30176811 60.94708252 -0.31074524 C65.07924208 0.28142376 67.18590815 1.478014 70.35058594 4.17700195 C72.5816218 8.00594358 72.60814895 11.51775384 72.62524414 15.89160156 C72.63035507 16.54593674 72.635466 17.20027191 72.64073181 17.87443542 C72.65457225 20.02616659 72.65367534 22.17757546 72.65136719 24.3293457 C72.6552571 25.83240375 72.65959238 27.3354607 72.66435242 28.83851624 C72.67180262 31.98482837 72.67153203 35.13102826 72.66625977 38.27734375 C72.66046582 42.30006718 72.67739975 46.32233007 72.70060444 50.34497738 C72.71536891 53.44803024 72.71620982 56.55097287 72.71309471 59.65405464 C72.71360653 61.1367541 72.71881811 62.61945995 72.72890663 64.10212517 C72.74130742 66.17938657 72.73445882 68.25575957 72.72290039 70.33300781 C72.72352982 71.51261581 72.72415924 72.69222382 72.72480774 73.90757751 C72.17472684 78.71341173 70.87367495 81.92398045 67.10095215 85.02774048 C63.68481506 86.45519939 61.04731836 86.55803058 57.34472656 86.56518555 C56.65952438 86.5704425 55.9743222 86.57569946 55.26835632 86.58111572 C53.01428099 86.59426748 50.76091785 86.58559535 48.50683594 86.57543945 C46.93412135 86.57746159 45.36140768 86.58037419 43.78869629 86.58413696 C40.49689788 86.58855376 37.20534413 86.5821502 33.91357422 86.56811523 C29.7001625 86.55102352 25.48732411 86.56086819 21.27393341 86.57883263 C18.0276459 86.589688 14.78149368 86.58621612 11.53520203 86.57844925 C9.98190747 86.57645208 8.42860051 86.57888952 6.87532043 86.58588791 C4.70203245 86.59353155 2.52966498 86.58185876 0.35644531 86.56518555 C-0.87867798 86.56279877 -2.11380127 86.56041199 -3.38635254 86.55795288 C-6.95610744 86.14119658 -8.80641575 85.33900244 -11.64941406 83.17700195 C-14.12163782 79.46866632 -13.91934943 77.55325121 -13.95581055 73.12280273 C-13.96413406 72.4086319 -13.97245758 71.69446106 -13.98103333 70.95864868 C-14.00513901 68.59648189 -14.01390603 66.23459122 -14.02050781 63.87231445 C-14.02947383 62.22948117 -14.03859567 60.58664873 -14.04786682 58.94381714 C-14.06436097 55.49890152 -14.07205767 52.05408314 -14.07495117 48.60913086 C-14.0803351 44.1981718 -14.11801272 39.78812851 -14.16369534 35.37742805 C-14.19346158 31.9835986 -14.20067462 28.58998976 -14.20167732 25.19604111 C-14.20588064 23.57013632 -14.21831957 21.94423094 -14.23919487 20.31845474 C-14.26610217 18.04161828 -14.26128806 15.76690537 -14.2487793 13.48999023 C-14.25384995 12.19553986 -14.25892059 10.90108948 -14.2641449 9.56741333 C-13.49290075 5.31378754 -11.95415221 3.86601272 -8.64941406 1.17700195 C-5.75770169 -0.26885423 -3.23096257 0.02567571 0 0 Z M8.35058594 22.17700195 C8.35058594 36.03700195 8.35058594 49.89700195 8.35058594 64.17700195 C22.21058594 64.17700195 36.07058594 64.17700195 50.35058594 64.17700195 C50.35058594 50.31700195 50.35058594 36.45700195 50.35058594 22.17700195 C36.49058594 22.17700195 22.63058594 22.17700195 8.35058594 22.17700195 Z " fill="#000000" transform="translate(205.6494140625,276.822998046875)"/>
<path d="M0 0 C0.65433517 -0.00511093 1.30867035 -0.01022186 1.98283386 -0.01548767 C4.13456502 -0.02932811 6.2859739 -0.0284312 8.43774414 -0.02612305 C9.94080218 -0.03001296 11.44385913 -0.03434824 12.94691467 -0.03910828 C16.0932268 -0.04655848 19.2394267 -0.04628789 22.38574219 -0.04101562 C26.40846561 -0.03522168 30.4307285 -0.05215561 34.45337582 -0.0753603 C37.55642868 -0.09012477 40.65937131 -0.09096568 43.76245308 -0.08785057 C45.24515253 -0.08836239 46.72785838 -0.09357397 48.21052361 -0.10366249 C50.28778501 -0.11606328 52.36415801 -0.10921467 54.44140625 -0.09765625 C56.21081825 -0.09860039 56.21081825 -0.09860039 58.01597595 -0.0995636 C62.82181017 0.4505173 66.03237888 1.75156919 69.13613892 5.52429199 C70.56359783 8.94042908 70.66642901 11.57792578 70.67358398 15.28051758 C70.67884094 15.96571976 70.6840979 16.65092194 70.68951416 17.35688782 C70.70266592 19.61096315 70.69399378 21.86432629 70.68383789 24.1184082 C70.68586003 25.69112279 70.68877263 27.26383646 70.6925354 28.83654785 C70.6969522 32.12834626 70.69054864 35.41990001 70.67651367 38.71166992 C70.65942196 42.92508164 70.66926663 47.13792003 70.68723106 51.35131073 C70.69808644 54.59759824 70.69461456 57.84375046 70.68684769 61.09004211 C70.68485052 62.64333667 70.68728795 64.19664363 70.69428635 65.74992371 C70.70192999 67.9232117 70.6902572 70.09557916 70.67358398 72.26879883 C70.6711972 73.50392212 70.66881042 74.73904541 70.66635132 76.01159668 C70.24959502 79.58135158 69.44740088 81.43165989 67.28540039 84.2746582 C63.57706475 86.74688196 61.66164965 86.54459357 57.23120117 86.58105469 C56.51703033 86.5893782 55.8028595 86.59770172 55.06704712 86.60627747 C52.70488033 86.63038315 50.34298965 86.63915017 47.98071289 86.64575195 C46.33787961 86.65471797 44.69504717 86.66383981 43.05221558 86.67311096 C39.60729996 86.68960511 36.16248158 86.69730182 32.7175293 86.70019531 C28.30657024 86.70557924 23.89652695 86.74325686 19.48582649 86.78893948 C16.09199703 86.81870572 12.69838819 86.82591876 9.30443954 86.82692146 C7.67853476 86.83112478 6.05262938 86.84356371 4.42685318 86.86443901 C2.15001671 86.89134631 -0.1246962 86.8865322 -2.40161133 86.87402344 C-3.69606171 86.87909409 -4.99051208 86.88416473 -6.32418823 86.88938904 C-10.57781402 86.11814489 -12.02558884 84.57939635 -14.71459961 81.2746582 C-16.1604558 78.38294583 -15.86592586 75.85620671 -15.89160156 72.62524414 C-15.89817276 71.94208633 -15.90474396 71.25892853 -15.91151428 70.55506897 C-15.93125586 68.28972262 -15.94291296 66.02444266 -15.95288086 63.7590332 C-15.95695639 62.98504433 -15.96103191 62.21105545 -15.96523094 61.41361237 C-15.98609738 57.31537645 -16.00039543 53.21717405 -16.00976562 49.11889648 C-16.02081912 44.89088409 -16.05520458 40.6633996 -16.09493732 36.43557358 C-16.12111911 33.18069499 -16.12945891 29.92594173 -16.1330471 26.6709671 C-16.13791067 25.1128814 -16.14951821 23.55480121 -16.1680851 21.99681854 C-16.19250672 19.81134117 -16.19150672 17.62722323 -16.18457031 15.44165039 C-16.19043655 14.1996991 -16.1963028 12.9577478 -16.2023468 11.67816162 C-15.6101778 7.54600206 -14.41358757 5.43933599 -11.71459961 2.2746582 C-7.88565799 0.04362234 -4.37384773 0.0170952 0 0 Z M6.28540039 22.2746582 C6.28540039 36.1346582 6.28540039 49.9946582 6.28540039 64.2746582 C20.14540039 64.2746582 34.00540039 64.2746582 48.28540039 64.2746582 C48.28540039 50.4146582 48.28540039 36.5546582 48.28540039 22.2746582 C34.42540039 22.2746582 20.56540039 22.2746582 6.28540039 22.2746582 Z " fill="#000000" transform="translate(100.714599609375,169.725341796875)"/>
<path d="M0 0 C1.07125626 -0.01248528 1.07125626 -0.01248528 2.16415405 -0.02522278 C4.52632084 -0.04932846 6.88821152 -0.05809548 9.25048828 -0.06469727 C10.89332157 -0.07366328 12.53615401 -0.08278512 14.1789856 -0.09205627 C17.62390121 -0.10855042 21.06871959 -0.11624713 24.51367188 -0.11914062 C28.92463093 -0.12452455 33.33467422 -0.16220217 37.74537468 -0.20788479 C41.13920414 -0.23765103 44.53281298 -0.24486408 47.92676163 -0.24586678 C49.55266641 -0.25007009 51.17857179 -0.26250902 52.80434799 -0.28338432 C55.08118446 -0.31029162 57.35589737 -0.30547752 59.6328125 -0.29296875 C60.92726288 -0.2980394 62.22171326 -0.30311005 63.5553894 -0.30833435 C67.8090152 0.4629098 69.25679001 2.00165833 71.94580078 5.30639648 C73.39165697 8.19810886 73.09712703 10.72484798 73.12280273 13.95581055 C73.12937393 14.63896835 73.13594513 15.32212616 73.14271545 16.02598572 C73.16245703 18.29133207 73.17411413 20.55661203 73.18408203 22.82202148 C73.18815756 23.59601036 73.19223309 24.36999924 73.19643211 25.16744232 C73.21729855 29.26567824 73.23159661 33.36388064 73.2409668 37.4621582 C73.25202029 41.69017059 73.28640575 45.91765509 73.3261385 50.14548111 C73.35232028 53.4003597 73.36066009 56.65511296 73.36424828 59.91008759 C73.36911184 61.46817329 73.38071938 63.02625348 73.39928627 64.58423615 C73.4237079 66.76971352 73.42270789 68.95383146 73.41577148 71.1394043 C73.42163773 72.38135559 73.42750397 73.62330688 73.43354797 74.90289307 C72.84137897 79.03505263 71.64478874 81.1417187 68.94580078 84.30639648 C65.11685916 86.53743235 61.6050489 86.56395949 57.23120117 86.58105469 C56.576866 86.58616562 55.92253082 86.59127655 55.24836731 86.59654236 C53.09663615 86.6103828 50.94522727 86.60948589 48.79345703 86.60717773 C47.29039899 86.61106765 45.78734204 86.61540293 44.2842865 86.62016296 C41.13797437 86.62761317 37.99177448 86.62734258 34.84545898 86.62207031 C30.82273556 86.61627637 26.80047267 86.6332103 22.77782536 86.65641499 C19.67477249 86.67117946 16.57182986 86.67202037 13.46874809 86.66890526 C11.98604864 86.66941708 10.50334279 86.67462865 9.02067757 86.68471718 C6.94341616 86.69711797 4.86704316 86.69026936 2.78979492 86.67871094 C1.02038292 86.67965508 1.02038292 86.67965508 -0.78477478 86.68061829 C-5.590609 86.13053739 -8.80117771 84.8294855 -11.90493774 81.0567627 C-13.33239665 77.6406256 -13.43522784 75.00312891 -13.44238281 71.30053711 C-13.44763977 70.61533493 -13.45289673 69.93013275 -13.45831299 69.22416687 C-13.47146474 66.97009154 -13.46279261 64.7167284 -13.45263672 62.46264648 C-13.45465886 60.8899319 -13.45757146 59.31721822 -13.46133423 57.74450684 C-13.46575102 54.45270843 -13.45934746 51.16115468 -13.4453125 47.86938477 C-13.42822079 43.65597304 -13.43806546 39.44313466 -13.45602989 35.22974396 C-13.46688527 31.98345645 -13.46341339 28.73730422 -13.45564651 25.49101257 C-13.45364935 23.93771801 -13.45608678 22.38441106 -13.46308517 20.83113098 C-13.47072882 18.65784299 -13.45905603 16.48547552 -13.44238281 14.31225586 C-13.43999603 13.07713257 -13.43760925 11.84200928 -13.43515015 10.56945801 C-13.01839385 6.99970311 -12.21619971 5.1493948 -10.05419922 2.30639648 C-6.34586358 -0.16582727 -4.43044848 0.03646112 0 0 Z M8.94580078 22.30639648 C8.94580078 36.16639648 8.94580078 50.02639648 8.94580078 64.30639648 C22.80580078 64.30639648 36.66580078 64.30639648 50.94580078 64.30639648 C50.94580078 50.44639648 50.94580078 36.58639648 50.94580078 22.30639648 C37.08580078 22.30639648 23.22580078 22.30639648 8.94580078 22.30639648 Z " fill="#000000" transform="translate(98.05419921875,63.693603515625)"/>
<path d="M0 0 C0.65608749 -0.00365067 1.31217499 -0.00730133 1.98814392 -0.01106262 C4.13941996 -0.01911548 6.28993023 -0.00560446 8.44116211 0.0090332 C9.94518534 0.00955239 11.44920925 0.00903244 12.95323181 0.00752258 C16.09783117 0.00761207 19.24217287 0.01799346 22.38671875 0.03613281 C26.41056375 0.05883879 30.43403337 0.05935799 34.45792484 0.05261517 C37.56094174 0.04926881 40.66387357 0.05591748 43.76687431 0.0657444 C45.25038647 0.06958373 46.73390812 0.07074989 48.21742439 0.06915855 C50.29226749 0.06878634 52.36663487 0.08145047 54.44140625 0.09765625 C55.62021866 0.10226364 56.79903107 0.10687103 58.01356506 0.11161804 C62.59294808 0.49152296 65.09389433 1.35887617 68.43615723 4.54797363 C70.60717386 8.11322396 70.66316083 10.40002586 70.67358398 14.56176758 C70.68059326 15.2664769 70.68760254 15.97118622 70.69482422 16.69725037 C70.7123659 19.01642784 70.70079634 21.33437554 70.68725586 23.65356445 C70.68995191 25.27112054 70.69383527 26.88867504 70.69885254 28.50622559 C70.70474236 31.89224719 70.69620168 35.277846 70.67749023 38.66381836 C70.65470052 42.99844263 70.66782644 47.33207618 70.69178009 51.66666412 C70.70625231 55.00562978 70.70162565 58.34436155 70.69126892 61.68333435 C70.68860555 63.2812868 70.69185771 64.87926067 70.70118713 66.47718811 C70.71137683 68.71298247 70.69582078 70.94718517 70.67358398 73.18286133 C70.67040161 74.4535144 70.66721924 75.72416748 70.66394043 77.0333252 C70.06918727 80.94303038 68.91093706 82.59038515 66.15600586 85.37231445 C63.2220014 86.83931669 60.59902438 86.5321234 57.32299805 86.56518555 C56.26900063 86.57745178 56.26900063 86.57745178 55.19371033 86.58996582 C52.86344251 86.61481956 50.53323568 86.63133721 48.20288086 86.64575195 C47.00879986 86.65373747 47.00879986 86.65373747 45.79059601 86.66188431 C41.57565778 86.68861805 37.36074917 86.70799066 33.14575195 86.72241211 C28.79656034 86.73904498 24.44812872 86.78380979 20.09922409 86.83478355 C16.75170037 86.86847945 13.40435636 86.87999212 10.05667877 86.88563919 C8.4539129 86.89234713 6.85115867 86.90755752 5.24855804 86.93153 C3.00061126 86.96323246 0.75470441 86.9632119 -1.4934082 86.95581055 C-2.77088928 86.9638974 -4.04837036 86.97198425 -5.36456299 86.98031616 C-10.01113281 86.16836666 -11.59429234 84.75989371 -14.84399414 81.37231445 C-16.34905624 78.06624392 -15.98434923 74.3651435 -16.00512695 70.77124023 C-16.01009186 70.11705109 -16.01505676 69.46286194 -16.02017212 68.78884888 C-16.03473762 66.63176407 -16.04158597 64.47475279 -16.04711914 62.31762695 C-16.05287479 60.81314086 -16.05863247 59.30865478 -16.06439209 57.8041687 C-16.07488581 54.65191304 -16.08073926 51.49968277 -16.08422852 48.34741211 C-16.08971283 44.31684387 -16.11374613 40.28661351 -16.14220047 36.2561512 C-16.16086282 33.14882437 -16.16603433 30.04157841 -16.16756439 26.93420029 C-16.17058284 25.44870022 -16.17858405 23.9632013 -16.19174957 22.4777565 C-16.2088878 20.3956382 -16.20691163 18.31433878 -16.20043945 16.23217773 C-16.2059079 14.45824142 -16.2059079 14.45824142 -16.21148682 12.64846802 C-15.78417963 8.83907515 -14.98272584 6.55694972 -12.84399414 3.37231445 C-8.55206607 0.49252737 -5.10419606 -0.00272354 0 0 Z M6.15600586 22.37231445 C6.15600586 36.23231445 6.15600586 50.09231445 6.15600586 64.37231445 C20.01600586 64.37231445 33.87600586 64.37231445 48.15600586 64.37231445 C48.15600586 50.51231445 48.15600586 36.65231445 48.15600586 22.37231445 C34.29600586 22.37231445 20.43600586 22.37231445 6.15600586 22.37231445 Z " fill="#000000" transform="translate(377.843994140625,361.627685546875)"/>
<path d="M0 0 C0.70470932 -0.00700928 1.40941864 -0.01401855 2.13548279 -0.02124023 C4.45466026 -0.03878192 6.77260796 -0.02721235 9.09179688 -0.01367188 C10.70935296 -0.01636792 12.32690746 -0.02025128 13.94445801 -0.02526855 C17.33047961 -0.03115837 20.71607842 -0.0226177 24.10205078 -0.00390625 C28.43667505 0.01888347 32.77030861 0.00575755 37.10489655 -0.01819611 C40.4438622 -0.03266833 43.78259397 -0.02804167 47.12156677 -0.01768494 C48.71951923 -0.01502156 50.31749309 -0.01827372 51.91542053 -0.02760315 C54.15121489 -0.03779284 56.38541759 -0.02223679 58.62109375 0 C59.89174683 0.00318237 61.1623999 0.00636475 62.47155762 0.00964355 C66.3812628 0.60439672 68.02861758 1.76264693 70.81054688 4.51757812 C72.27754911 7.45158259 71.97035582 10.07455961 72.00341797 13.35058594 C72.0156842 14.40458336 72.0156842 14.40458336 72.02819824 15.47987366 C72.05305198 17.81014148 72.06956963 20.1403483 72.08398438 22.47070312 C72.08930805 23.26675713 72.09463173 24.06281113 72.10011673 24.88298798 C72.12685047 29.0979262 72.14622309 33.31283481 72.16064453 37.52783203 C72.1772774 41.87702364 72.22204221 46.22545527 72.27301598 50.57435989 C72.30671187 53.92188361 72.31822454 57.26922762 72.32387161 60.61690521 C72.33057956 62.21967108 72.34578994 63.82242532 72.36976242 65.42502594 C72.40146488 67.67297272 72.40144432 69.91887958 72.39404297 72.16699219 C72.40212982 73.44447327 72.41021667 74.72195435 72.41854858 76.03814697 C71.60659908 80.68471679 70.19812613 82.26787632 66.81054688 85.51757812 C63.50447634 87.02264022 59.80337592 86.65793321 56.20947266 86.67871094 C55.55528351 86.68367584 54.90109436 86.68864075 54.2270813 86.6937561 C52.0699965 86.70832161 49.91298521 86.71516995 47.75585938 86.72070312 C46.25137328 86.72645877 44.7468872 86.73221645 43.24240112 86.73797607 C40.09014546 86.74846979 36.93791519 86.75432325 33.78564453 86.7578125 C29.7550763 86.76329682 25.72484593 86.78733012 21.69438362 86.81578445 C18.5870568 86.83444681 15.47981083 86.83961832 12.37243271 86.84114838 C10.88693264 86.84416683 9.40143372 86.85216804 7.91598892 86.86533356 C5.83387063 86.88247179 3.75257121 86.88049562 1.67041016 86.87402344 C-0.10352615 86.87949188 -0.10352615 86.87949188 -1.91329956 86.8850708 C-5.72269242 86.45776361 -8.00481786 85.65630983 -11.18945312 83.51757812 C-14.06924021 79.22565005 -14.56449112 75.77778004 -14.56176758 70.67358398 C-14.56541824 70.01749649 -14.56906891 69.361409 -14.5728302 68.68544006 C-14.58088305 66.53416403 -14.56737204 64.38365376 -14.55273438 62.23242188 C-14.55221519 60.72839865 -14.55273514 59.22437473 -14.554245 57.72035217 C-14.55415551 54.57575282 -14.54377411 51.43141111 -14.52563477 48.28686523 C-14.50292879 44.26302023 -14.50240959 40.23955061 -14.50915241 36.21565914 C-14.51249877 33.11264224 -14.5058501 30.00971041 -14.49602318 26.90670967 C-14.49218385 25.42319751 -14.49101769 23.93967587 -14.49260902 22.45615959 C-14.49298124 20.38131649 -14.48031711 18.30694912 -14.46411133 16.23217773 C-14.45950394 15.05336533 -14.45489655 13.87455292 -14.45014954 12.66001892 C-14.07024462 8.0806359 -13.20289141 5.57968965 -10.01379395 2.23742676 C-6.44854362 0.06641012 -4.16174172 0.01042316 0 0 Z M7.81054688 22.51757812 C7.81054688 36.37757813 7.81054688 50.23757813 7.81054688 64.51757812 C21.67054688 64.51757812 35.53054688 64.51757812 49.81054688 64.51757812 C49.81054688 50.65757812 49.81054688 36.79757812 49.81054688 22.51757812 C35.95054687 22.51757812 22.09054687 22.51757812 7.81054688 22.51757812 Z " fill="#000000" transform="translate(376.189453125,255.482421875)"/>
<path d="M0 0 C0.65418915 -0.0049649 1.3083783 -0.00992981 1.98239136 -0.01504517 C4.13947616 -0.02961067 6.29648745 -0.03645902 8.45361328 -0.04199219 C9.95809937 -0.04774783 11.46258546 -0.05350551 12.96707153 -0.05926514 C16.11932719 -0.06975886 19.27155747 -0.07561231 22.42382812 -0.07910156 C26.45439636 -0.08458588 30.48462672 -0.10861918 34.51508904 -0.13707352 C37.62241586 -0.15573587 40.72966182 -0.16090738 43.83703995 -0.16243744 C45.32254002 -0.16545589 46.80803894 -0.1734571 48.29348373 -0.18662262 C50.37560203 -0.20376085 52.45690145 -0.20178468 54.5390625 -0.1953125 C55.72168671 -0.19895813 56.90431091 -0.20260376 58.12277222 -0.20635986 C61.93216508 0.22094733 64.21429051 1.02240111 67.39892578 3.16113281 C70.27871286 7.45306088 70.77396377 10.9009309 70.77124023 16.00512695 C70.7748909 16.66121445 70.77854156 17.31730194 70.78230286 17.99327087 C70.79035571 20.14454691 70.7768447 22.29505718 70.76220703 24.44628906 C70.76168785 25.95031229 70.7622078 27.4543362 70.76371765 28.95835876 C70.76362817 32.10295812 70.75324677 35.24729983 70.73510742 38.3918457 C70.71240145 42.41569071 70.71188225 46.43916032 70.71862507 50.4630518 C70.72197142 53.56606869 70.71532275 56.66900052 70.70549583 59.77200127 C70.70165651 61.25551343 70.70049035 62.73903507 70.70208168 64.22255135 C70.7024539 66.29739444 70.68978977 68.37176182 70.67358398 70.4465332 C70.6666729 72.21475182 70.6666729 72.21475182 70.65962219 74.01869202 C70.27971727 78.59807503 69.41236407 81.09902128 66.2232666 84.44128418 C62.65801627 86.61230081 60.37121438 86.66828778 56.20947266 86.67871094 C55.50476334 86.68572021 54.80005402 86.69272949 54.07398987 86.69995117 C51.7548124 86.71749285 49.4368647 86.70592329 47.11767578 86.69238281 C45.5001197 86.69507886 43.8825652 86.69896222 42.26501465 86.70397949 C38.87899305 86.70986931 35.49339423 86.70132863 32.10742188 86.68261719 C27.77279761 86.65982747 23.43916405 86.67295339 19.10457611 86.69690704 C15.76561046 86.71137927 12.42687868 86.70675261 9.08790588 86.69639587 C7.48995343 86.6937325 5.89197956 86.69698466 4.29405212 86.70631409 C2.05825777 86.71650378 -0.17594494 86.70094773 -2.41162109 86.67871094 C-3.68227417 86.67552856 -4.95292725 86.67234619 -6.26208496 86.66906738 C-10.17179015 86.07431422 -11.81914492 84.91606401 -14.60107422 82.16113281 C-16.06807645 79.22712835 -15.76088317 76.60415133 -15.79394531 73.328125 C-15.8021228 72.62546005 -15.81030029 71.9227951 -15.81872559 71.19883728 C-15.84357932 68.86856946 -15.86009698 66.53836264 -15.87451172 64.20800781 C-15.8798354 63.41195381 -15.88515907 62.61589981 -15.89064407 61.79572296 C-15.91737781 57.58078474 -15.93675043 53.36587613 -15.95117188 49.15087891 C-15.96780475 44.80168729 -16.01256955 40.45325567 -16.06354332 36.10435104 C-16.09723921 32.75682733 -16.10875188 29.40948331 -16.11439896 26.06180573 C-16.1211069 24.45903985 -16.13631729 22.85628562 -16.16028976 21.253685 C-16.19199223 19.00573822 -16.19197166 16.75983136 -16.18457031 14.51171875 C-16.19265717 13.23423767 -16.20074402 11.95675659 -16.20907593 10.64056396 C-15.39712643 5.99399414 -13.98865347 4.41083462 -10.60107422 1.16113281 C-7.29500369 -0.34392928 -3.59390327 0.02077773 0 0 Z M6.39892578 22.16113281 C6.39892578 36.02113281 6.39892578 49.88113281 6.39892578 64.16113281 C20.25892578 64.16113281 34.11892578 64.16113281 48.39892578 64.16113281 C48.39892578 50.30113281 48.39892578 36.44113281 48.39892578 22.16113281 C34.53892578 22.16113281 20.67892578 22.16113281 6.39892578 22.16113281 Z " fill="#000000" transform="translate(207.60107421875,169.8388671875)"/>
<path d="M0 0 C0.70266495 -0.00817749 1.4053299 -0.01635498 2.12928772 -0.02478027 C4.45955554 -0.04963401 6.78976236 -0.06615167 9.12011719 -0.08056641 C10.31419819 -0.08855192 10.31419819 -0.08855192 11.53240204 -0.09669876 C15.74734026 -0.1234325 19.96224887 -0.14280512 24.17724609 -0.15722656 C28.52643771 -0.17385943 32.87486933 -0.21862424 37.22377396 -0.26959801 C40.57129767 -0.3032939 43.91864169 -0.31480657 47.26631927 -0.32045364 C48.86908515 -0.32716159 50.47183938 -0.34237197 52.07444 -0.36634445 C54.32238678 -0.39804692 56.56829364 -0.39802635 58.81640625 -0.390625 C60.09388733 -0.39871185 61.37136841 -0.40679871 62.68756104 -0.41513062 C67.33413086 0.39681889 68.91729038 1.80529184 72.16699219 5.19287109 C73.67205428 8.49894162 73.30734727 12.20004205 73.328125 15.79394531 C73.33557236 16.77522903 73.33557236 16.77522903 73.34317017 17.77633667 C73.35773567 19.93342147 73.36458402 22.09043276 73.37011719 24.24755859 C73.37587283 25.75204469 73.38163051 27.25653077 73.38739014 28.76101685 C73.39788386 31.91327251 73.40373731 35.06550278 73.40722656 38.21777344 C73.41271088 42.24834167 73.43674418 46.27857204 73.46519852 50.30903435 C73.48386087 53.41636117 73.48903238 56.52360713 73.49056244 59.63098526 C73.49358089 61.11648533 73.5015821 62.60198425 73.51474762 64.08742905 C73.53188585 66.16954734 73.52990968 68.25084676 73.5234375 70.33300781 C73.52890594 72.10694412 73.52890594 72.10694412 73.53448486 73.91671753 C73.10717767 77.72611039 72.30572389 80.00823582 70.16699219 83.19287109 C65.87506412 86.07265818 62.4271941 86.56790909 57.32299805 86.56518555 C56.66691055 86.56883621 56.01082306 86.57248688 55.33485413 86.57624817 C53.18357809 86.58430102 51.03306782 86.57079001 48.88183594 86.55615234 C47.37781271 86.55563316 45.8737888 86.55615311 44.36976624 86.55766296 C41.22516688 86.55757348 38.08082517 86.54719208 34.9362793 86.52905273 C30.91243429 86.50634676 26.88896468 86.50582756 22.8650732 86.51257038 C19.76205631 86.51591673 16.65912448 86.50926806 13.55612373 86.49944115 C12.07261157 86.49560182 10.58908993 86.49443566 9.10557365 86.49602699 C7.03073056 86.49639921 4.95636318 86.48373508 2.8815918 86.4675293 C1.70277939 86.46292191 0.52396698 86.45831451 -0.69056702 86.4535675 C-5.26995003 86.07366259 -7.77089628 85.20630938 -11.11315918 82.01721191 C-13.28417581 78.45196159 -13.34016278 76.16515969 -13.35058594 72.00341797 C-13.36109985 70.94635399 -13.36109985 70.94635399 -13.37182617 69.86793518 C-13.38936785 67.54875771 -13.37779829 65.23081001 -13.36425781 62.91162109 C-13.36695386 61.29406501 -13.37083722 59.67651051 -13.37585449 58.05895996 C-13.38174431 54.67293836 -13.37320363 51.28733955 -13.35449219 47.90136719 C-13.33170247 43.56674292 -13.34482839 39.23310936 -13.36878204 34.89852142 C-13.38325427 31.55955577 -13.37862761 28.22082399 -13.36827087 24.8818512 C-13.3656075 23.28389874 -13.36885966 21.68592488 -13.37818909 20.08799744 C-13.38837878 17.85220308 -13.37282273 15.61800038 -13.35058594 13.38232422 C-13.34740356 12.11167114 -13.34422119 10.84101807 -13.34094238 9.53186035 C-12.74618922 5.62215516 -11.58793901 3.97480039 -8.83300781 1.19287109 C-5.89900335 -0.27413114 -3.27602633 0.03306215 0 0 Z M9.16699219 22.19287109 C9.16699219 36.05287109 9.16699219 49.91287109 9.16699219 64.19287109 C23.02699219 64.19287109 36.88699219 64.19287109 51.16699219 64.19287109 C51.16699219 50.33287109 51.16699219 36.47287109 51.16699219 22.19287109 C37.30699219 22.19287109 23.44699219 22.19287109 9.16699219 22.19287109 Z " fill="#000000" transform="translate(204.8330078125,63.80712890625)"/>
</svg>
