<?xml version="1.0" encoding="UTF-8"?>
<svg version="1.1" xmlns="http://www.w3.org/2000/svg" width="512" height="512">
<path d="M0 0 C1.11662474 -0.00445784 2.23324948 -0.00891569 3.38371134 -0.01350862 C5.21621887 -0.01323207 5.21621887 -0.01323207 7.08574677 -0.01294994 C8.38758329 -0.01662663 9.68941981 -0.02030332 11.03070593 -0.02409142 C14.64281638 -0.03409136 18.2549102 -0.03782498 21.86703253 -0.04048073 C25.76362403 -0.04438979 29.66020245 -0.05396775 33.55678558 -0.0626936 C42.96678252 -0.08244172 52.37678051 -0.09252242 61.78679299 -0.10142139 C66.22117702 -0.10580726 70.65555985 -0.11117332 75.08994293 -0.11641026 C89.83631645 -0.13342139 104.58268923 -0.14791453 119.32907104 -0.155159 C123.15449779 -0.15706881 126.97992453 -0.15898915 130.80535126 -0.16094494 C132.23149003 -0.16167055 132.23149003 -0.16167055 133.68643969 -0.16241082 C149.08064274 -0.17070728 164.47476798 -0.19603822 179.86893708 -0.22852562 C195.68368325 -0.2616277 211.49838992 -0.27961063 227.31317091 -0.28280324 C236.18854822 -0.28496549 245.0638121 -0.2936723 253.93915558 -0.31926441 C261.49944033 -0.34101453 269.0595841 -0.34900071 276.61989659 -0.33929763 C280.4737092 -0.33476528 284.32723117 -0.33657649 288.18100357 -0.35605907 C292.36934305 -0.3770491 296.55704329 -0.36666585 300.74541473 -0.35352612 C301.94924065 -0.36449536 303.15306657 -0.37546461 304.39337206 -0.38676625 C320.79195248 -0.26305979 335.01979961 5.7513209 346.65789032 17.17718983 C355.90116444 26.74341416 362.53284574 40.30717642 362.5577364 53.71070576 C362.56219424 54.8273305 362.56665208 55.94395524 362.57124501 57.0944171 C362.57096847 58.92692463 362.57096847 58.92692463 362.57068634 60.79645252 C362.57436303 62.09828905 362.57803972 63.40012557 362.58182782 64.74141169 C362.59182776 68.35352213 362.59556138 71.96561596 362.59821713 75.57773829 C362.60212618 79.47432979 362.61170414 83.37090821 362.62042999 87.26749134 C362.64017812 96.67748828 362.65025882 106.08748627 362.65915778 115.49749875 C362.66354366 119.93188277 362.66890972 124.36626561 362.67414665 128.80064869 C362.69115779 143.5470222 362.70565092 158.29339498 362.71289539 173.0397768 C362.7148052 176.86520355 362.71672555 180.69063029 362.71868134 184.51605701 C362.71916508 185.4668162 362.71964882 186.41757538 362.72014721 187.39714545 C362.72844367 202.7913485 362.75377462 218.18547374 362.78626201 233.57964283 C362.8193641 249.394389 362.83734703 265.20909568 362.84053963 281.02387667 C362.84270188 289.89925398 362.85140869 298.77451785 362.87700081 307.64986134 C362.89875092 315.21014609 362.90673711 322.77028985 362.89703403 330.33060235 C362.89250168 334.18441496 362.89431288 338.03793693 362.91379547 341.89170933 C362.93478549 346.08004881 362.92440224 350.26774904 362.91126251 354.45612049 C362.92771638 356.26185937 362.92771638 356.26185937 362.94450265 358.10407782 C362.81555774 375.19706876 356.0194279 389.41885327 344.20867157 401.47015858 C334.74884039 410.51869275 322.04321203 416.24393654 308.84703064 416.26844215 C307.7304059 416.2729 306.61378116 416.27735784 305.4633193 416.28195077 C303.63081177 416.28167423 303.63081177 416.28167423 301.76128387 416.2813921 C300.45944735 416.28506879 299.15761083 416.28874547 297.81632471 416.29253358 C294.20421426 416.30253352 290.59212043 416.30626714 286.97999811 416.30892289 C283.08340661 416.31283194 279.18682819 416.3224099 275.29024506 416.33113575 C265.88024812 416.35088388 256.47025013 416.36096458 247.06023765 416.36986354 C242.62585362 416.37424942 238.19147079 416.37961547 233.75708771 416.38485241 C219.01071419 416.40186354 204.26434141 416.41635668 189.51795959 416.42360115 C185.69253285 416.42551096 181.86710611 416.4274313 178.04167938 416.42938709 C177.0909202 416.42987083 176.14016101 416.43035457 175.16059095 416.43085297 C159.7663879 416.43914943 144.37226265 416.46448038 128.97809356 416.49696777 C113.16334739 416.53006986 97.34864072 416.54805278 81.53385973 416.55124539 C72.65848242 416.55340764 63.78321854 416.56211445 54.90787506 416.58770657 C47.3475903 416.60945668 39.78744654 416.61744286 32.22713405 416.60773978 C28.37332144 416.60320744 24.51979947 416.60501864 20.66602707 416.62450123 C16.47768759 416.64549125 12.28998735 416.635108 8.10161591 416.62196827 C6.29587703 416.63842214 6.29587703 416.63842214 4.45365858 416.65520841 C-12.63933237 416.5262635 -26.86111687 409.73013365 -38.91242218 397.91937733 C-47.96095635 388.45954615 -53.68620015 375.75391779 -53.71070576 362.5577364 C-53.7151636 361.44111166 -53.71962144 360.32448691 -53.72421438 359.17402506 C-53.72403001 357.95235337 -53.72384565 356.73068168 -53.7236557 355.47198963 C-53.72733239 354.17015311 -53.73100908 352.86831658 -53.73479718 351.52703047 C-53.74479712 347.91492002 -53.74853074 344.30282619 -53.75118649 340.69070387 C-53.75509554 336.79411237 -53.7646735 332.89753395 -53.77339935 329.00095081 C-53.79314748 319.59095387 -53.80322818 310.18095588 -53.81212714 300.7709434 C-53.81651302 296.33655938 -53.82187908 291.90217655 -53.82711601 287.46779346 C-53.84412715 272.72141995 -53.85862028 257.97504717 -53.86586475 243.22866535 C-53.86777456 239.4032386 -53.86969491 235.57781186 -53.8716507 231.75238514 C-53.87213444 230.80162596 -53.87261818 229.85086677 -53.87311658 228.8712967 C-53.88141304 213.47709366 -53.90674398 198.08296841 -53.93923137 182.68879932 C-53.97233346 166.87405315 -53.99031639 151.05934648 -53.99350899 135.24456549 C-53.99567125 126.36918818 -54.00437805 117.4939243 -54.02997017 108.61858082 C-54.05172028 101.05829606 -54.05970647 93.4981523 -54.05000339 85.93783981 C-54.04547104 82.08402719 -54.04728224 78.23050522 -54.06676483 74.37673283 C-54.08775485 70.18839335 -54.0773716 66.00069311 -54.06423187 61.81232166 C-54.07520112 60.60849575 -54.08617036 59.40466983 -54.09747201 58.16436434 C-53.97376555 41.76578392 -47.95938486 27.53793678 -36.53351593 15.89984608 C-26.96729159 6.65657196 -13.40352934 0.02489066 0 0 Z M-15.40460968 42.17718983 C-30.99369282 63.55542277 -21.57648468 116.86621233 -21.57648468 128.13422108 C94.58351532 128.13422108 210.74351532 128.13422108 330.42351532 128.13422108 C335.80878517 87.48199988 335.80878517 87.48199988 322.42351532 40.13422108 C313.39615526 32.20982794 303.5790493 31.83478584 292.01262665 31.88025379 C290.17301849 31.87557382 290.17301849 31.87557382 288.29624653 31.8707993 C284.91340486 31.86422854 281.53078704 31.86655776 278.14795923 31.87277174 C274.49146177 31.87731208 270.83498332 31.87030464 267.17848969 31.8648119 C260.02382386 31.85593311 252.86920007 31.85783315 245.71453261 31.86363718 C239.89817317 31.86815963 234.08182548 31.86876405 228.26546478 31.86658955 C227.43667433 31.86628308 226.60788387 31.86597661 225.75397855 31.86566086 C224.07014393 31.86502139 222.38630932 31.86437296 220.70247471 31.86371568 C204.92462507 31.85801682 189.1467987 31.86456331 173.36895287 31.87531641 C159.83992818 31.88425152 146.31093782 31.88269935 132.78191376 31.87347889 C117.05932519 31.86276841 101.33675701 31.8585661 85.61416531 31.86470342 C83.93663216 31.86534049 82.25909901 31.86596924 80.58156586 31.86658955 C79.75625408 31.8668981 78.93094229 31.86720665 78.08062106 31.86752455 C72.27333416 31.86924916 66.46606022 31.86634144 60.65877533 31.86163044 C53.57865761 31.85601297 46.49858423 31.85755626 39.41847157 31.86819193 C35.80824421 31.87343699 32.19809069 31.87552532 28.58786392 31.86889362 C24.67000247 31.86180584 20.75226111 31.87028674 16.83440399 31.88025379 C15.69947415 31.87579235 14.56454432 31.8713309 13.39522266 31.86673427 C2.06332857 31.92262808 -7.5130373 33.35818907 -15.40460968 42.17718983 Z M-21.57648468 160.13422108 C-21.61773468 192.43297108 -21.65898468 224.73172108 -21.70148468 258.00922108 C-21.71969269 268.20296619 -21.7379007 278.39671131 -21.75666046 288.8993578 C-21.76334984 298.04683332 -21.76334984 298.04683332 -21.76737213 307.19431019 C-21.7692334 311.2647263 -21.77672039 315.33509011 -21.7876358 319.40549183 C-21.80138928 324.60335264 -21.80546042 329.80113777 -21.80262923 334.99901509 C-21.80322096 336.90299759 -21.80716587 338.80698284 -21.81491494 340.71094966 C-22.25870396 359.76936219 -22.25870396 359.76936219 -13.57648468 376.13422108 C-4.54912462 384.05861422 5.26798134 384.43365632 16.83440399 384.38818836 C18.06080943 384.39130834 19.28721487 384.39442832 20.55078411 384.39764285 C23.93362578 384.40421361 27.3162436 384.40188439 30.69907141 384.39567041 C34.35556887 384.39113007 38.01204731 384.39813751 41.66854095 384.40363026 C48.82320678 384.41250905 55.97783057 384.410609 63.13249803 384.40480497 C68.94885747 384.40028253 74.76520516 384.3996781 80.58156586 384.40185261 C81.41035631 384.40215907 82.23914677 384.40246554 83.09305209 384.40278129 C84.7768867 384.40342076 86.46072132 384.40406919 88.14455593 384.40472648 C103.92240557 384.41042533 119.70023194 384.40387885 135.47807777 384.39312574 C149.00710246 384.38419064 162.53609282 384.3857428 176.06511688 384.39496326 C191.78770544 384.40567374 207.51027363 384.40987605 223.23286533 384.40373874 C224.91039848 384.40310166 226.58793163 384.40247292 228.26546478 384.40185261 C229.50343246 384.40138978 229.50343246 384.40138978 230.76640958 384.4009176 C236.57369648 384.399193 242.38097042 384.40210071 248.18825531 384.40681171 C255.26837302 384.41242918 262.34844641 384.4108859 269.42855906 384.40025023 C273.03878643 384.39500517 276.64893995 384.39291684 280.25916672 384.39954853 C284.17702817 384.40663632 288.09476953 384.39815541 292.01262665 384.38818836 C293.14755649 384.39264981 294.28248632 384.39711125 295.45180798 384.40170789 C305.8810932 384.35026614 314.37840769 383.19637383 322.42351532 376.13422108 C332.08955014 365.33222063 330.70591101 351.51336649 330.6505661 337.9149828 C330.64995273 335.94134053 330.65022161 333.96769782 330.65129662 331.99405575 C330.65174636 326.72999451 330.64019208 321.46602503 330.62607574 316.20198536 C330.61464832 311.25434564 330.61414746 306.30672773 330.6127243 301.35907459 C330.60224819 286.90911137 330.57432573 272.45916505 330.54851532 258.00922108 C330.50726532 225.71047108 330.46601532 193.41172108 330.42351532 160.13422108 C214.26351532 160.13422108 98.10351532 160.13422108 -21.57648468 160.13422108 Z " fill="#000000" transform="translate(101.57648468017578,47.86577892303467)"/>
<path d="M0 0 C0.83144531 -0.03738281 1.66289062 -0.07476562 2.51953125 -0.11328125 C8.09518375 0.77653738 12.17764744 5.050407 16.05957031 8.90991211 C17.43063934 10.26668312 17.43063934 10.26668312 18.82940674 11.65086365 C19.80847588 12.63019416 20.78720731 13.60986239 21.765625 14.58984375 C22.78337207 15.60369851 23.80134047 16.61733114 24.81951904 17.63075256 C26.9442893 19.74808994 29.06518052 21.86922307 31.18359375 23.99291992 C33.89421431 26.70935027 36.61606838 29.4142075 39.34114456 32.11612606 C41.44306637 34.20330082 43.53800425 36.29737771 45.63100433 38.39349556 C46.63176672 39.39374586 47.63488374 40.39164623 48.64041901 41.38709831 C50.045123 42.77942896 51.43930025 44.1823555 52.83300781 45.58569336 C53.62765442 46.37971054 54.42230103 47.17372772 55.24102783 47.99180603 C58.72821719 52.14942998 59.40720214 55.77364953 59.55078125 61.15234375 C58.6316292 66.61783925 55.40972886 70.46552656 51.59594727 74.27636719 C50.20419029 75.67746735 50.20419029 75.67746735 48.78431702 77.10687256 C47.77448659 78.10801596 46.76434207 79.10884262 45.75390625 80.109375 C44.71351348 81.14924854 43.67364014 82.18964201 42.63426208 83.23052979 C40.46097476 85.40372768 38.28263897 87.57169053 36.1003418 89.73583984 C33.30647314 92.50698003 30.52385839 95.28910284 27.74470615 98.07499313 C25.60123456 100.22180852 23.45280139 102.36360071 21.30274773 104.50382233 C20.27479243 105.52793564 19.2481735 106.55339218 18.22293282 107.58022308 C16.78969853 109.01382898 15.34922414 110.44018556 13.90844727 111.86621094 C13.09142838 112.67862244 12.27440948 113.49103394 11.43263245 114.32806396 C6.95236113 118.28810287 3.48665191 118.69968593 -2.34375 118.5625 C-7.06976035 118.08391667 -9.84678493 116.33186591 -13.0625 112.9375 C-16.34395681 108.01531478 -17.41867758 104.27324619 -16.8125 98.3125 C-14.52864379 91.97302831 -10.63177591 87.58612917 -5.859375 82.96875 C-5.19915344 82.31418823 -4.53893188 81.65962646 -3.85870361 80.98522949 C-1.76925215 78.9179832 0.3337338 76.86516647 2.4375 74.8125 C3.86550517 73.40458021 5.29259806 71.99573449 6.71875 70.5859375 C10.19787934 67.1506649 13.6892096 63.7282536 17.1875 60.3125 C15.25640809 56.07616668 12.32456444 53.2662179 9.0078125 50.078125 C7.75623048 48.85184815 6.50493754 47.62527619 5.25390625 46.3984375 C3.28726017 44.48126371 1.31759762 42.56742455 -0.65771484 40.65917969 C-2.56991888 38.80785554 -4.46909725 36.94390214 -6.3671875 35.078125 C-6.95273407 34.51949768 -7.53828064 33.96087036 -8.14157104 33.38531494 C-12.97193957 28.61388441 -16.33943857 23.62393002 -17.3125 16.8125 C-16.49221709 11.0705196 -14.45973354 6.87938068 -10.25 2.875 C-6.80528423 0.66684886 -4.01822072 0.11727526 0 0 Z " fill="#000000" transform="translate(170.8125,260.6875)"/>
<path d="M0 0 C0.8946698 -0.0065712 1.7893396 -0.0131424 2.71112061 -0.01991272 C5.67566003 -0.03964259 8.64014877 -0.05130863 11.60473633 -0.0612793 C12.6180282 -0.06535482 13.63132008 -0.06943035 14.67531776 -0.07362938 C20.04021628 -0.09449038 25.40508923 -0.10879108 30.77001953 -0.11816406 C36.30371825 -0.12921888 41.83701381 -0.16360821 47.37057018 -0.20333576 C51.6317671 -0.22951942 55.89286828 -0.23785755 60.15413857 -0.24144554 C62.19342072 -0.2463082 64.23269869 -0.25791302 66.27190208 -0.27648354 C69.13211074 -0.30090831 71.99128084 -0.2999036 74.8515625 -0.29296875 C75.68770584 -0.30577881 76.52384918 -0.31858887 77.3853302 -0.33178711 C83.06820697 -0.28178464 87.54153415 0.88955326 92.24926758 4.17700195 C96.41841415 9.41516046 97.79654182 13.50025617 97.24926758 20.17700195 C95.43934146 25.44939543 93.01474376 29.12220953 88.24926758 32.17700195 C84.27695523 33.50110607 80.45787024 33.34946916 76.31494141 33.36987305 C74.94367599 33.38213928 74.94367599 33.38213928 73.54470825 33.39465332 C70.51524509 33.41949214 67.48582878 33.43602073 64.45629883 33.45043945 C63.42094183 33.45576313 62.38558483 33.46108681 61.31885338 33.46657181 C55.83725093 33.49329856 50.3556712 33.51267382 44.87402344 33.52709961 C40.34126582 33.54043316 35.80895897 33.56827609 31.27636719 33.60913086 C25.80043311 33.65848796 20.32490763 33.68322474 14.8487606 33.69032669 C12.76480336 33.69703308 10.680855 33.71223911 8.59702492 33.7362175 C5.67439174 33.7679254 2.75332726 33.76789704 -0.16943359 33.76049805 C-1.02427841 33.77690338 -1.87912323 33.79330872 -2.75987244 33.81021118 C-8.8951301 33.74689156 -12.98909303 32.06642131 -17.75073242 28.17700195 C-21.38167352 23.68326297 -21.25307336 19.64156387 -21.10229492 14.0559082 C-20.46500957 8.83724927 -17.96041875 6.26867011 -14.18823242 2.86450195 C-9.6496244 -0.27761129 -5.31439304 0.01688585 0 0 Z " fill="#000000" transform="translate(260.750732421875,345.822998046875)"/>
<path d="M0 0 C0.72957413 -0.00619858 1.45914825 -0.01239716 2.21083069 -0.01878357 C3.74625319 -0.02585329 5.28175281 -0.02275758 6.81713867 -0.01000977 C9.1510295 0.00385204 11.48090053 -0.03024149 13.81445312 -0.06835938 C26.24527612 -0.13249382 26.24527612 -0.13249382 30.66796875 2.93359375 C34.78821101 7.17983731 36.37202012 10.57049872 36.72265625 16.44140625 C36.55460796 21.74693096 34.85064033 25.68759858 31.22265625 29.56640625 C27.10222475 32.63192373 23.53288857 33.03371209 18.54296875 33.03515625 C17.81197968 33.04276978 17.0809906 33.0503833 16.32785034 33.05822754 C14.78647259 33.06899678 13.24502205 33.07189457 11.70361328 33.06738281 C9.36104879 33.0664118 7.02177848 33.10803259 4.6796875 33.15234375 C-7.83095549 33.2523606 -7.83095549 33.2523606 -12.2265625 30.203125 C-16.37530815 25.91460537 -17.92770663 22.55110941 -18.21484375 16.62890625 C-18.03661812 11.4758609 -16.89792388 8.67243273 -13.77734375 4.56640625 C-9.2583786 0.90026369 -5.69059188 -0.04085894 0 0 Z " fill="#000000" transform="translate(214.77734375,111.43359375)"/>
<path d="M0 0 C0.70974976 -0.0038269 1.41949951 -0.00765381 2.15075684 -0.01159668 C3.64332508 -0.01430462 5.13594168 -0.00702191 6.62841797 0.00976562 C8.90050013 0.03119577 11.16942129 0.00993053 13.44140625 -0.015625 C14.89844441 -0.01298152 16.35548062 -0.00785611 17.8125 0 C19.78186523 0.00676758 19.78186523 0.00676758 21.79101562 0.01367188 C27.12368042 0.7771274 30.16741004 3.1584814 33.71875 7.09375 C36.66792987 11.35367647 36.92412585 15.48675565 36.40625 20.53125 C34.40328332 26.20632225 30.79274821 29.83800089 25.40625 32.53125 C22.9957082 32.66622396 20.61534415 32.74380704 18.203125 32.76953125 C17.48771545 32.777603 16.77230591 32.78567474 16.03521729 32.79399109 C14.51878276 32.80782958 13.00231712 32.8185528 11.48583984 32.82641602 C9.17875106 32.84358257 6.87311318 32.88746124 4.56640625 32.93164062 C3.09115635 32.94177212 1.61589428 32.9502868 0.140625 32.95703125 C-0.5439679 32.97453934 -1.22856079 32.99204742 -1.93389893 33.01008606 C-6.95153322 32.98763277 -9.71267738 31.63262381 -13.59375 28.53125 C-17.22208663 24.71194828 -17.90375458 21.64845994 -18.09375 16.53125 C-17.90375458 11.41404006 -17.22208663 8.35055172 -13.59375 4.53125 C-8.96160145 0.85327668 -5.88320487 0.0202172 0 0 Z " fill="#000000" transform="translate(129.59375,111.46875)"/>
</svg>
