<?xml version="1.0" encoding="UTF-8"?>
<svg version="1.1" xmlns="http://www.w3.org/2000/svg" width="512" height="512">
<path d="M0 0 C1.43883545 0.30599121 1.43883545 0.30599121 2.90673828 0.61816406 C40.04273686 8.74443609 74.19490909 25.11983286 103 50 C103.91007812 50.77988281 104.82015625 51.55976562 105.7578125 52.36328125 C108.22066132 54.52916276 110.61995399 56.74344694 113 59 C113.49564453 59.46841309 113.99128906 59.93682617 114.50195312 60.41943359 C122.84733145 68.36173927 130.13206378 76.76105198 137 86 C137.4237793 86.55768066 137.84755859 87.11536133 138.28417969 87.68994141 C145.5421633 97.24916887 151.47749079 107.35342137 157 118 C157.39074707 118.74878418 157.78149414 119.49756836 158.18408203 120.26904297 C174.23749424 151.42600119 181.45665128 185.4276802 181.375 220.3125 C181.37412384 221.23175262 181.37324768 222.15100525 181.37234497 223.09811401 C181.18891695 281.69924217 158.41231064 335.78131788 118 378 C117.52981445 378.49741699 117.05962891 378.99483398 116.57519531 379.50732422 C108.97805066 387.51338763 100.84055847 394.40749721 92 401 C91.44086914 401.42522949 90.88173828 401.85045898 90.30566406 402.28857422 C80.74799756 409.54470107 70.64442424 415.47860829 60 421 C58.87682373 421.58612061 58.87682373 421.58612061 57.73095703 422.18408203 C26.41558985 438.31911338 -7.64086116 445.45896006 -42.6875 445.3125 C-43.61642059 445.31034485 -44.54534119 445.3081897 -45.50241089 445.30596924 C-58.89069476 445.25610813 -71.88139636 444.89233116 -85 442 C-86.46397217 441.69400879 -86.46397217 441.69400879 -87.95751953 441.38183594 C-125.53786127 433.43181445 -159.87513081 417.15637307 -189 392 C-189.91007812 391.22011719 -190.82015625 390.44023437 -191.7578125 389.63671875 C-194.22066132 387.47083724 -196.61995399 385.25655306 -199 383 C-199.49564453 382.53158691 -199.99128906 382.06317383 -200.50195312 381.58056641 C-208.84733145 373.63826073 -216.13206378 365.23894802 -223 356 C-223.4237793 355.44231934 -223.84755859 354.88463867 -224.28417969 354.31005859 C-231.5421633 344.75083113 -237.47749079 334.64657863 -243 324 C-243.58612061 322.87682373 -243.58612061 322.87682373 -244.18408203 321.73095703 C-260.31911338 290.41558985 -267.45896006 256.35913884 -267.3125 221.3125 C-267.31034485 220.38357941 -267.3081897 219.45465881 -267.30596924 218.49758911 C-267.25610813 205.10930524 -266.89233116 192.11860364 -264 179 C-263.79600586 178.02401855 -263.59201172 177.04803711 -263.38183594 176.04248047 C-255.43181445 138.46213873 -239.15637307 104.12486919 -214 75 C-213.22011719 74.08992188 -212.44023437 73.17984375 -211.63671875 72.2421875 C-209.47083724 69.77933868 -207.25655306 67.38004601 -205 65 C-204.53158691 64.50435547 -204.06317383 64.00871094 -203.58056641 63.49804688 C-195.63826073 55.15266855 -187.23894802 47.86793622 -178 41 C-177.44231934 40.5762207 -176.88463867 40.15244141 -176.31005859 39.71582031 C-149.38700168 19.27409458 -117.876025 6.87156144 -85 0 C-84.17999512 -0.18079102 -83.35999023 -0.36158203 -82.51513672 -0.54785156 C-56.85414484 -6.02757091 -25.5958949 -5.53025112 0 0 Z M-178 85 C-178.77988281 85.72703125 -179.55976563 86.4540625 -180.36328125 87.203125 C-206.45497394 112.22890484 -223.35937428 147.02488767 -231 182 C-231.16371094 182.71220703 -231.32742187 183.42441406 -231.49609375 184.15820312 C-236.68883621 207.65428989 -236.61817225 236.60108443 -231 260 C-230.77425293 260.95551758 -230.54850586 261.91103516 -230.31591797 262.89550781 C-222.84186517 293.6109253 -209.37447214 320.85789657 -189 345 C-185.90993059 341.34723276 -184.18918804 337.26024369 -182.25 332.9375 C-179.00606811 325.90041091 -175.47184523 319.35021093 -171 313 C-170.32324219 312.03835938 -169.64648438 311.07671875 -168.94921875 310.0859375 C-151.79102464 286.49723015 -129.06003919 268.08784215 -102 257 C-103.61594832 254.95880212 -105.2856382 252.95927063 -107 251 C-107.66 251 -108.32 251 -109 251 C-109.25523437 250.42765625 -109.51046875 249.8553125 -109.7734375 249.265625 C-111.13157685 246.75695997 -112.7439643 244.89333151 -114.625 242.75 C-122.50425208 233.03703107 -127.75972113 221.02314 -131 209 C-131.22429687 208.20464844 -131.44859375 207.40929687 -131.6796875 206.58984375 C-137.16382169 182.88786654 -131.54945396 157.84505292 -119.16796875 137.359375 C-106.19045828 117.2500795 -85.75056948 103.14144499 -62.3347168 98.08105469 C-36.47043042 93.33531407 -11.95015182 98.83449505 10 113 C29.79751952 127.28974806 42.27218067 148.28714957 46.58984375 172.27734375 C49.37361484 197.54338038 44.4785975 221.22549136 29.48828125 241.9375 C25.36138711 247.01675433 20.78410228 251.53781862 16 256 C18.64994565 258.64994565 21.78510394 259.90652163 25.125 261.5 C40.07490581 268.85571223 52.78379951 277.67316047 65 289 C65.77988281 289.70898438 66.55976563 290.41796875 67.36328125 291.1484375 C82.91732033 305.9232161 93.42937641 325.59944804 102 345 C126.09884869 321.23183877 140.23102251 286.95991499 146 254 C146.17660156 253.0090332 146.35320312 252.01806641 146.53515625 250.99707031 C148.12132462 241.18265354 148.39945408 231.53989622 148.375 221.625 C148.37445618 220.79195343 148.37391235 219.95890686 148.37335205 219.10061646 C148.33142748 205.07952916 147.2935789 191.67403101 144 178 C143.79101074 177.11151367 143.58202148 176.22302734 143.36669922 175.30761719 C131.48978365 126.28753871 99.69728189 83.82469144 57.05419922 57.24267578 C-19.08388029 11.1833907 -114.23585108 24.20371697 -178 85 Z M-86 147 C-91.58641265 154.09223436 -96.32895946 161.29329326 -99 170 C-99.22300781 170.67804688 -99.44601563 171.35609375 -99.67578125 172.0546875 C-103.75023553 186.74489679 -100.92352857 202.71958017 -93.9296875 215.9765625 C-85.01952701 229.93701638 -71.33454124 240.56836103 -55.0625 244.375 C-38.70685476 246.9421482 -23.84900476 244.08016068 -10 235 C3.21038118 224.87512044 12.46020042 211.62591876 15 195 C16.49469712 177.30059876 12.00902711 161.84745228 0.875 147.8125 C-9.08895055 137.1368387 -23.30937989 129.64759466 -37.93359375 128.76171875 C-56.09422419 128.31123815 -73.3726332 133.10227437 -86 147 Z M-134.48876953 318.65673828 C-145.39825739 331.35574885 -153.38399601 345.25677571 -159 361 C-159.38285156 362.02996094 -159.76570313 363.05992187 -160.16015625 364.12109375 C-161.34753978 368.02739039 -161.34753978 368.02739039 -161 372 C-158.89920463 374.01713538 -157.00051335 375.55542721 -154.625 377.1875 C-153.95525146 377.6609082 -153.28550293 378.13431641 -152.59545898 378.62207031 C-110.60231836 407.65746553 -58.27034681 418.70641819 -8.078125 409.73242188 C22.66440737 403.68671686 50.20975175 391.05572244 75 372 C74.4671106 366.52577257 73.47733273 361.65259244 71.5 356.5 C71.23936768 355.81784424 70.97873535 355.13568848 70.71020508 354.43286133 C65.74942758 341.94440072 58.93953473 331.03162449 50 321 C48.93845703 319.74123047 48.93845703 319.74123047 47.85546875 318.45703125 C38.75291504 307.87838775 28.12129726 299.83765486 16 293 C15.05769531 292.46632813 14.11539063 291.93265625 13.14453125 291.3828125 C-35.87248272 265.28547817 -97.68698413 277.70283278 -134.48876953 318.65673828 Z " fill="#000000" transform="translate(299,35)"/>
</svg>
