<?xml version="1.0" encoding="UTF-8"?>
<svg version="1.1" xmlns="http://www.w3.org/2000/svg" width="512" height="512">
<path d="M0 0 C0.74362793 0.16628906 1.48725586 0.33257813 2.25341797 0.50390625 C24.9234928 5.7612996 46.60194368 16.49841427 64 32 C65.23943359 33.05960938 65.23943359 33.05960938 66.50390625 34.140625 C95.3318398 59.22408518 114.09321308 95.87580656 116.86816406 134.13720703 C117.38699886 145.40360853 117.13889553 156.72702508 117 168 C118.31613281 167.95359375 119.63226563 167.9071875 120.98828125 167.859375 C136.37135288 167.47278472 147.15709664 169.35427972 159 180 C170.75866209 192.95852557 170.58088526 207.83171058 170.50170898 224.31689453 C170.50549685 226.56842384 170.51100072 228.81995081 170.51808167 231.07147217 C170.53199083 237.15811573 170.52089895 243.24447519 170.50437045 249.33110285 C170.49047448 255.71389114 170.49698508 262.09666369 170.50050354 268.47946167 C170.50320167 279.19388472 170.4898513 289.90816855 170.46655273 300.62255859 C170.44262467 311.62780928 170.43555464 322.63291155 170.44604492 333.63818359 C170.45869319 346.9310319 170.45614564 360.22377568 170.44038582 373.51662827 C170.43463854 378.58257527 170.43469878 383.64847261 170.43945122 388.71442032 C170.44423445 394.68173194 170.43406336 400.64883901 170.41249657 406.61611176 C170.4069474 408.80176733 170.40644615 410.98744263 170.41144943 413.17309952 C170.41743682 416.16446256 170.40483101 419.15520738 170.38768005 422.14651489 C170.39669512 423.43292128 170.39669512 423.43292128 170.40589231 424.74531567 C170.28359587 436.53586316 165.78739292 446.87752014 158 455.6875 C150.29094681 462.96443137 139.65568552 467.11852398 129.16525745 467.13142776 C127.4039437 467.13718948 127.4039437 467.13718948 125.60704786 467.1430676 C123.67808802 467.14176787 123.67808802 467.14176787 121.7101593 467.14044189 C120.32703719 467.14302656 118.94391582 467.14604 117.56079549 467.1494453 C113.76046581 467.15750667 109.96015503 467.15930439 106.15981781 467.16004276 C102.06082982 467.16189482 97.9618516 467.16944294 93.86286926 467.17617798 C84.89997118 467.18975574 75.93707758 467.19578517 66.97417092 467.20018864 C61.37672789 467.20295203 55.77928658 467.20718956 50.18184471 467.21169281 C34.68142588 467.2238848 19.18100843 467.23418422 3.68058491 467.2375679 C2.19269568 467.23789725 2.19269568 467.23789725 0.67474807 467.23823325 C-0.81668307 467.23856067 -0.81668307 467.23856067 -2.33824414 467.2388947 C-4.35301888 467.23933817 -6.36779362 467.23978473 -8.38256836 467.24023438 C-9.38196431 467.2404558 -10.38136026 467.24067723 -11.41104094 467.24090537 C-27.60263699 467.24485288 -43.79418801 467.26230578 -59.98576667 467.2855939 C-76.61297751 467.30931537 -93.24016576 467.32177012 -109.86739379 467.32293582 C-119.20151936 467.32385214 -128.53558627 467.32959356 -137.86969566 467.34775543 C-145.81835269 467.36316715 -153.76693293 467.36827056 -161.71560206 467.36001733 C-165.76949196 467.35611461 -169.82322727 467.35702189 -173.87709808 467.37107468 C-177.59254448 467.38383627 -181.30772049 467.38259644 -185.02316663 467.37048396 C-186.99489887 467.36760979 -188.96663587 467.37944562 -190.93833083 467.39190602 C-204.06101212 467.31906831 -214.75012957 463.78392565 -224.6875 455 C-233.19362191 445.98876397 -236.14970538 434.73712775 -236.14717102 422.74778748 C-236.15268605 421.34525391 -236.15268605 421.34525391 -236.1583125 419.91438633 C-236.1693306 416.77942581 -236.17319002 413.64449846 -236.17700195 410.50952148 C-236.18326806 408.26227209 -236.18991499 406.01502372 -236.19691467 403.76777649 C-236.21794141 396.38555623 -236.22831633 389.0033358 -236.23828125 381.62109375 C-236.24232944 379.07773388 -236.24644638 376.53437413 -236.25063133 373.99101448 C-236.26749843 363.40943281 -236.28213258 352.82785328 -236.28938007 342.24626064 C-236.29128979 339.50263403 -236.29321014 336.75900744 -236.29516602 334.01538086 C-236.29564976 333.33351469 -236.2961335 332.65164853 -236.2966319 331.94911975 C-236.30492553 320.91266522 -236.33025264 309.87631931 -236.36274669 298.83991217 C-236.39587702 287.49436512 -236.4135019 276.14889259 -236.41702431 264.80328995 C-236.41937224 258.43911962 -236.42829952 252.07512103 -236.45348549 245.71099663 C-236.47681194 239.71996665 -236.48098086 233.72922094 -236.47072411 227.73815727 C-236.47022974 225.54526828 -236.4765207 223.35236508 -236.49028015 221.1595192 C-236.58775524 204.69721765 -235.65116271 191.75792256 -224 179 C-211.53621787 167.8797433 -198.89061158 167.4397042 -183 168 C-183.01571045 167.17612793 -183.0314209 166.35225586 -183.04760742 165.50341797 C-183.74941979 122.91495627 -176.73139021 83.15160408 -148 50 C-147.31550781 49.19433594 -146.63101563 48.38867188 -145.92578125 47.55859375 C-121.43142797 19.45824951 -86.75328432 0.79723041 -49.46362305 -2.83666992 C-32.89995794 -3.93478626 -16.2221986 -3.67978428 0 0 Z M-128.66015625 61.875 C-155.78059176 93.39674266 -161 127.20708149 -161 168 C-147.14 168 -133.28 168 -119 168 C-118.896875 163.545 -118.79375 159.09 -118.6875 154.5 C-117.83871827 127.66807366 -112.23521338 105.55262614 -93 86 C-91.85917969 84.83984375 -91.85917969 84.83984375 -90.6953125 83.65625 C-73.19918769 66.90586166 -51.03562206 61.31662543 -27.390625 61.75 C-2.72725876 62.60935074 16.88339857 74.99542893 33.3125 92.4375 C51.88981853 114.17527521 52.37322314 140.92323958 53 168 C66.86 168 80.72 168 95 168 C95 129.4506926 90.78288192 95.25246659 65 65 C64.24847656 64.10925781 63.49695313 63.21851563 62.72265625 62.30078125 C39.89735231 36.10583666 8.19209697 21.28824721 -26.30810547 18.8359375 C-65.38482641 16.8011332 -102.29223594 33.37751197 -128.66015625 61.875 Z M-79 103 C-79.63164062 103.61230469 -80.26328125 104.22460938 -80.9140625 104.85546875 C-97.66605983 122.16094617 -97 145.50708812 -97 168 C-54.76 168 -12.52 168 31 168 C31.10330818 133.66418618 31.10330818 133.66418618 15 105 C14.39542969 104.28328125 13.79085937 103.5665625 13.16796875 102.828125 C2.18424594 90.89633349 -13.77433377 84.0514128 -29.80078125 82.77734375 C-48.73409378 82.20056734 -65.97714246 89.37199109 -79 103 Z M-209.05859375 196.25390625 C-209.51363281 197.01574219 -209.96867187 197.77757812 -210.4375 198.5625 C-210.91058594 199.32691406 -211.38367188 200.09132812 -211.87109375 200.87890625 C-214.30273459 205.44769856 -214.14558208 209.69490179 -214.14044189 214.73490906 C-214.14341302 215.63837643 -214.14638414 216.5418438 -214.1494453 217.47268897 C-214.15814559 220.51264503 -214.15964168 223.55256176 -214.16113281 226.5925293 C-214.16576009 228.76715682 -214.17078463 230.94178354 -214.17617798 233.1164093 C-214.1893138 239.03393515 -214.1957494 244.95144964 -214.20018864 250.8689878 C-214.20311783 254.56516978 -214.20722237 258.26134865 -214.21169281 261.95752907 C-214.22537167 273.51938478 -214.23503608 285.08123338 -214.2388947 296.64309663 C-214.23933679 297.96058909 -214.23977889 299.27808156 -214.24023438 300.63549805 C-214.2404558 301.29561954 -214.24067723 301.95574103 -214.24090537 302.6358662 C-214.245096 313.98925279 -214.26525394 325.34255651 -214.2898953 336.69591588 C-214.31150861 347.01194172 -214.32159882 357.32793875 -214.32293582 367.643987 C-214.32398422 373.80681817 -214.32989936 379.96955311 -214.34775543 386.13236046 C-214.36422966 391.93125757 -214.36639466 397.72998607 -214.35761642 403.52889824 C-214.35684567 405.65573325 -214.36119377 407.7825773 -214.37107468 409.9093895 C-214.38378715 412.81651781 -214.37792093 415.72304835 -214.36749268 418.63017273 C-214.37957728 419.88783488 -214.37957728 419.88783488 -214.39190602 421.17090434 C-214.33879817 427.51653266 -213.30332726 433.18100245 -209.16796875 438.2421875 C-208.51441406 438.78101563 -207.86085938 439.31984375 -207.1875 439.875 C-206.21876953 440.70644531 -206.21876953 440.70644531 -205.23046875 441.5546875 C-200.78422668 444.43579006 -196.39288707 445.24989434 -191.16156197 445.25447559 C-190.01199552 445.26030779 -188.86242907 445.26613998 -187.67802727 445.27214891 C-186.42473024 445.26836958 -185.1714332 445.26459026 -183.88015747 445.26069641 C-182.52774402 445.26371826 -181.17533227 445.26760791 -179.82292354 445.27228898 C-176.11217882 445.28257349 -172.40153067 445.28038601 -168.69077802 445.27610838 C-164.68659246 445.27364198 -160.68243021 445.28265428 -156.67825317 445.29014587 C-148.83570251 445.30289737 -140.99318608 445.30468599 -133.15062679 445.30234561 C-126.77592948 445.30056276 -120.40124255 445.30231139 -114.02654648 445.30657005 C-113.11935071 445.30716524 -112.21215495 445.30776043 -111.27746841 445.30837366 C-109.43450746 445.30958541 -107.59154651 445.31079954 -105.74858557 445.31201603 C-88.46380048 445.32289336 -71.1790349 445.3207282 -53.89424871 445.31463119 C-38.08288637 445.30946214 -22.27158564 445.3207168 -6.46023549 445.33972941 C9.7760171 445.35910322 26.01224053 445.36736459 42.24850476 445.36360615 C51.36345327 445.36169338 60.47834934 445.36418908 69.59328842 445.37832069 C77.35314003 445.39022966 85.11290692 445.39164484 92.87275968 445.37953053 C96.83121841 445.37363837 100.78952214 445.37255166 104.74797058 445.38453293 C108.37384442 445.39537995 111.99943364 445.39230262 115.6252941 445.37827124 C117.55371525 445.37436848 119.48214898 445.38518111 121.41054046 445.39656812 C128.83959659 445.35020628 135.25917908 445.05652441 141.2421875 440.16796875 C141.78101563 439.51441406 142.31984375 438.86085938 142.875 438.1875 C143.42929687 437.54167969 143.98359375 436.89585937 144.5546875 436.23046875 C148.13730057 430.70162533 148.2924569 425.27971062 148.27415466 418.91778564 C148.27939134 418.01316613 148.28462802 417.10854661 148.29002339 416.17651439 C148.30500436 413.15050891 148.30572813 410.12467281 148.30639648 407.09863281 C148.31401926 404.92680578 148.32244696 402.75498144 148.33161926 400.5831604 C148.35355986 394.68633289 148.36236264 388.78955724 148.36744571 382.89269352 C148.37108989 379.20702818 148.3773303 375.52137641 148.3844471 371.83571625 C148.40894039 358.97315372 148.42199317 346.11063152 148.42553711 333.24804688 C148.42917193 321.26580987 148.45906385 309.2839076 148.50094169 297.30173612 C148.53565303 287.00854149 148.5510857 276.71543174 148.55178314 266.42217898 C148.55257568 260.27714676 148.56130417 254.13237553 148.58978081 247.98740387 C148.61597542 242.20559996 148.61815844 236.4242732 148.60212517 230.64243698 C148.6003118 228.52449629 148.60699116 226.40652808 148.62294388 224.2886467 C149.18266385 209.2564704 149.18266385 209.2564704 143 196 C138.24283374 191.56187221 133.90540985 189.87725712 127.46823597 189.86577892 C125.73194564 189.85909216 125.73194564 189.85909216 123.96057874 189.85227031 C122.04417971 189.85254685 122.04417971 189.85254685 120.08906555 189.85282898 C118.72274314 189.84953015 117.35642171 189.84580454 115.99010152 189.8416875 C112.22700049 189.83166151 108.46391541 189.82794975 104.70080292 189.82529819 C100.64544313 189.82139691 96.59009599 189.81181845 92.53474426 189.80308533 C82.73683828 189.78331593 72.93893126 189.77325411 63.14101031 189.76435754 C58.52815625 189.75997542 53.91530334 189.75460841 49.30245018 189.74936867 C33.97024556 189.73235592 18.63804166 189.71786143 3.30582905 189.71061993 C-0.67363676 189.70871 -4.65310257 189.70678967 -8.63256836 189.70483398 C-9.62165748 189.70435024 -10.61074659 189.7038665 -11.62980811 189.7033681 C-27.65476768 189.69506663 -43.67965263 189.66972795 -59.70457961 189.63725331 C-76.15317523 189.60419157 -92.60173291 189.58617197 -109.05036193 189.58297569 C-118.28722466 189.58080977 -127.52397858 189.57204917 -136.76080894 189.54651451 C-144.62687529 189.52481961 -152.49280639 189.51675112 -160.35889926 189.52648129 C-164.37207 189.53102952 -168.38496163 189.5291096 -172.39809418 189.50971985 C-176.07410923 189.49211237 -179.74964106 189.49306587 -183.42566106 189.50861714 C-185.38108304 189.51212185 -187.33650994 189.49594883 -189.29186171 189.47901267 C-197.17720174 189.53681657 -203.45643538 190.1202338 -209.05859375 196.25390625 Z " fill="#000000" transform="translate(289,24)"/>
<path d="M0 0 C11.34676538 8.72957991 20.42390292 20.97142934 22.44921875 35.5390625 C23.55306234 51.11552198 21.16222993 65.28394259 11.375 77.92578125 C8.01940965 81.76704915 5.26081779 84.83932592 0.625 87.01953125 C0.63388245 87.63847763 0.64276489 88.25742401 0.6519165 88.89512634 C0.74077753 95.3682222 0.80089452 101.84114326 0.84472656 108.31469727 C0.86477552 110.7268783 0.89202192 113.13901114 0.92675781 115.55102539 C0.97557051 119.02892998 0.99803683 122.50618897 1.015625 125.984375 C1.03627014 127.05348618 1.05691528 128.12259735 1.07818604 129.22410583 C1.08109497 139.04860617 -1.76756067 146.04804401 -8.44921875 153.23046875 C-16.1423594 160.37744323 -24.32705099 162.57669384 -34.703125 162.390625 C-43.64201052 161.487227 -50.72972944 157.75734904 -56.75390625 151.14453125 C-60.93291005 145.66651182 -63.50562962 139.92452629 -63.48852539 132.99731445 C-63.48844986 131.9764827 -63.48837433 130.95565094 -63.48829651 129.90388489 C-63.48313522 128.803806 -63.47797394 127.70372711 -63.47265625 126.5703125 C-63.4712413 125.44255905 -63.46982635 124.3148056 -63.46836853 123.15287781 C-63.4627647 119.54590213 -63.45021153 115.93898821 -63.4375 112.33203125 C-63.43248549 109.88867277 -63.4279225 107.44531332 -63.42382812 105.00195312 C-63.41279403 99.00779138 -63.39605215 93.01366573 -63.375 87.01953125 C-64.00043701 86.71644043 -64.62587402 86.41334961 -65.27026367 86.10107422 C-74.36873575 81.4257197 -80.02259904 70.41939225 -83.25 61.14453125 C-88.28571767 44.88999952 -84.7093905 29.98510143 -77.2890625 15.24609375 C-70.02726869 3.00478418 -57.71807272 -4.93336949 -44.12109375 -8.5859375 C-28.40397828 -10.84401526 -13.27385615 -9.16436289 0 0 Z M-56.91015625 25.81640625 C-62.92295431 33.73997688 -63.45517263 42.31744013 -62.375 52.01953125 C-59.98481618 59.84442961 -55.86126364 65.23052034 -49.5234375 70.30078125 C-46.68844957 72.5687716 -44.01356466 74.74240194 -42.375 78.01953125 C-42.28109494 79.74437542 -42.24986179 81.47279702 -42.24902344 83.20019531 C-42.24331329 84.82263153 -42.24331329 84.82263153 -42.23748779 86.47784424 C-42.23646057 87.6517572 -42.23543335 88.82567017 -42.234375 90.03515625 C-42.21604609 92.5078217 -42.1964757 94.98047821 -42.17578125 97.453125 C-42.14680743 101.361644 -42.12499999 105.26958928 -42.12451172 109.17822266 C-42.1211783 112.94355497 -42.08662796 116.70755503 -42.046875 120.47265625 C-42.0539447 121.63847229 -42.0610144 122.80428833 -42.06829834 124.00543213 C-42.06002774 130.82696246 -42.06002774 130.82696246 -39.05175781 136.73730469 C-35.70225717 139.59311753 -33.75716585 140.09778421 -29.375 140.01953125 C-25.63411228 138.40414792 -23.51080903 136.45568575 -21.375 133.01953125 C-20.92629927 130.43530262 -20.92629927 130.43530262 -20.99023438 127.59594727 C-20.98012329 126.51124649 -20.97001221 125.42654572 -20.95959473 124.30897522 C-20.96261597 123.14224777 -20.96563721 121.97552032 -20.96875 120.7734375 C-20.95791382 119.57017319 -20.94707764 118.36690887 -20.93591309 117.12718201 C-20.90160758 113.27874373 -20.88604876 109.43060245 -20.875 105.58203125 C-20.86044914 100.52054679 -20.82679401 95.45972738 -20.78125 90.3984375 C-20.78427124 89.23373428 -20.78729248 88.06903107 -20.79040527 86.86903381 C-20.78029419 85.78118088 -20.77018311 84.69332794 -20.75976562 83.57250977 C-20.75771118 82.61860855 -20.75565674 81.66470734 -20.75354004 80.68190002 C-20.19028588 76.72038969 -18.53950529 74.01106609 -15.5078125 71.4296875 C-14.51394531 70.76259766 -14.51394531 70.76259766 -13.5 70.08203125 C-5.66415312 64.42759229 -1.60390812 57.46183865 0.5 48.14453125 C1.25630272 38.09366621 -1.91792033 29.67544373 -8.375 22.01953125 C-16.24597575 14.9936763 -23.83514508 12.48848876 -34.31640625 12.7109375 C-43.85294818 13.67311734 -50.80940323 18.67557574 -56.91015625 25.81640625 Z " fill="#000000" transform="translate(287.375,264.98046875)"/>
</svg>
